<?xml version="1.0" standalone="no"?>
<!DOCTYPE svg PUBLIC "-//W3C//DTD SVG 20010904//EN"
 "http://www.w3.org/TR/2001/REC-SVG-20010904/DTD/svg10.dtd">
<svg version="1.0" xmlns="http://www.w3.org/2000/svg"
 width="300.000000pt" height="300.000000pt" viewBox="0 0 300.000000 300.000000"
 preserveAspectRatio="xMidYMid meet">
<metadata>
Created by potrace 1.11, written by Peter Selinger 2001-2013
</metadata>
<g transform="translate(0.000000,300.000000) scale(0.100000,-0.100000)"
fill="#000000" stroke="none">
<path d="M897 2548 l-607 -351 0 -702 0 -702 67 -40 c69 -41 367 -212 869
-501 l281 -162 604 349 604 349 0 707 0 707 -155 90 c-307 180 -1038 601
-1049 605 -3 1 -279 -156 -614 -349z m791 105 c62 -36 112 -67 110 -68 -2 -2
-154 -42 -339 -89 -382 -97 -384 -98 -423 -134 -57 -54 -56 -35 -56 -746 l0
-655 -42 15 c-144 51 -354 14 -467 -82 -22 -20 -45 -33 -51 -29 -7 4 -10 221
-10 634 l0 628 548 316 547 316 35 -21 c19 -11 86 -50 148 -85z m860 -500 l52
-33 -2 -626 -3 -626 -510 -295 c-280 -162 -526 -303 -546 -314 l-35 -21 -195
112 c-107 62 -198 116 -203 120 -4 5 1 19 13 31 12 13 31 43 44 68 l22 46 3
631 3 632 87 22 c48 12 270 68 495 125 l407 103 0 -424 c0 -233 -2 -424 -5
-424 -2 0 -30 7 -62 15 -207 54 -435 -30 -514 -190 -28 -58 -31 -72 -27 -128
6 -76 32 -129 90 -186 103 -101 277 -143 436 -106 128 30 222 98 269 193 l28
57 3 653 3 652 47 -27 c26 -15 71 -42 100 -60z"/>
</g>
</svg>
