<?xml version="1.0" standalone="no"?>
<!DOCTYPE svg PUBLIC "-//W3C//DTD SVG 20010904//EN"
 "http://www.w3.org/TR/2001/REC-SVG-20010904/DTD/svg10.dtd">
<svg version="1.0" xmlns="http://www.w3.org/2000/svg"
 width="300.000000pt" height="300.000000pt" viewBox="0 0 300.000000 300.000000"
 preserveAspectRatio="xMidYMid meet">
<metadata>
Created by potrace 1.11, written by Peter Selinger 2001-2013
</metadata>
<g transform="translate(0.000000,300.000000) scale(0.100000,-0.100000)"
fill="#000000" stroke="none">
<path d="M1465 2879 c-16 -11 -61 -38 -100 -60 -38 -22 -77 -44 -85 -49 -8 -6
-163 -95 -345 -200 -181 -104 -335 -194 -342 -200 -7 -5 -15 -10 -18 -10 -3 0
-68 -37 -145 -81 l-140 -82 0 -702 0 -703 212 -123 c117 -67 323 -186 458
-264 135 -78 265 -153 290 -167 96 -54 226 -130 237 -140 14 -11 7 -15 233
117 96 56 182 105 190 108 8 4 22 11 30 17 35 22 201 120 205 120 3 0 34 18
70 40 36 22 70 40 75 40 6 0 10 4 10 9 0 5 9 13 21 16 12 4 80 42 152 84 73
43 158 92 190 110 l57 32 0 704 0 703 -106 61 c-58 34 -122 71 -142 83 -20 11
-109 62 -197 113 -151 88 -569 329 -645 373 -19 11 -55 31 -80 46 -53 30 -47
30 -85 5z"/>
</g>
</svg>
