<svg xmlns="http://www.w3.org/2000/svg" height="48" viewBox="0 -960 960 960" width="48"><path d="M216-259q64-41 127.545-61.5 63.546-20.5 136.5-20.5Q553-341 616.5-320.5 680-300 746-259q43-56 60-109t17-112q0-146-98.5-244.5T480-823q-146 0-244.5 98.5T137-480q0 59 17.5 112T216-259Zm263.854-179Q417-438 374-481.146q-43-43.145-43-106Q331-650 374.146-693q43.145-43 106-43Q543-736 586-692.854q43 43.145 43 106Q629-524 585.854-481q-43.145 43-106 43Zm-.42 374q-84.985 0-161.276-32.974-76.29-32.973-132.724-90Q129-244 96.5-319.341 64-394.681 64-480.5q0-85.819 33.21-161.285 33.211-75.467 89.965-132.078 56.754-56.611 132.13-89.374T480.5-896q85.819 0 161.166 33.24t131.632 89.58q56.286 56.34 89.494 131.839T896-480.266q0 85.734-32.763 161.035-32.763 75.302-89.443 132.056-56.68 56.754-132.447 89.965Q565.58-64 479.434-64Z"/></svg>