<svg xmlns="http://www.w3.org/2000/svg" height="48" viewBox="0 -960 960 960" width="48"><path d="M485-104q-157.758 0-267.379-110Q108-324 110-481h74q-2 127 85.498 215.5T484-177q127.164 0 216.082-90.127Q789-357.254 789-484.5q0-125.5-89.582-212T485-783q-71.651 0-134.325 33Q288-717 245-662h110v73H121v-233h73v107q52-67 128.635-104Q399.271-856 485-856q77.921 0 146.471 29.6 68.551 29.6 119.323 80.025 50.773 50.424 80.989 118.602Q862-559.594 862-481.797t-30.217 146.772q-30.216 68.976-80.989 120.4Q700.022-163.2 631.471-133.6 562.921-104 485-104Zm116-203L439-465.565V-691h73v194l141 138-52 52Z"/></svg>