<svg xmlns="http://www.w3.org/2000/svg" height="48" viewBox="0 -960 960 960" width="48"><path d="M447-272h73v-248h-73v248Zm32.895-330Q496-602 507-612.587t11-26.238q0-17.625-10.87-28.4Q496.261-678 480.193-678 463-678 452.5-667.4 442-656.801 442-639.675q0 16.275 10.895 26.975 10.894 10.7 27 10.7Zm-.087 538q-85.916 0-161.522-33.02T186.36-186.36q-56.32-56.32-89.34-132.132Q64-394.303 64-480.5q0-86.09 33.079-161.809 33.079-75.718 89.686-132.31 56.606-56.592 132.056-88.986Q394.271-896 480.057-896q86.148 0 162.172 32.395 76.023 32.394 132.397 89Q831-718 863.5-641.958 896-565.917 896-479.724q0 86.192-32.395 161.297-32.394 75.104-88.986 131.502-56.592 56.399-132.616 89.662Q565.979-64 479.808-64Z"/></svg>