<svg xmlns="http://www.w3.org/2000/svg" height="48" viewBox="0 -960 960 960" width="48"><path d="M490.085-325Q533-325 564.5-355.53 596-386.06 596-430v-251h121v-67H553v236q-12.352-9-29.411-14-17.06-5-34.06-5-42.409 0-70.969 29.542-28.56 29.543-28.56 71.5Q390-387 418.585-356q28.584 31 71.5 31ZM265-185q-29.363 0-51.181-22.137Q192-229.275 192-258v-564q0-28.725 21.819-50.862Q235.637-895 265-895h564q28.725 0 50.862 22.138Q902-850.725 902-822v564q0 28.725-22.138 50.863Q857.725-185 829-185H265ZM132-52q-29.363 0-51.181-22.138Q59-96.275 59-125v-637h73v637h637v73H132Z"/></svg>