<svg xmlns="http://www.w3.org/2000/svg" height="48" viewBox="0 -960 960 960" width="48"><path d="M189.779-425Q167-425 151-441.221q-16-16.221-16-39T151.221-519q16.221-16 39-16T229-518.779q16 16.221 16 39T228.779-441q-16.221 16-39 16Zm290 0Q457-425 441-441.221q-16-16.221-16-39T441.221-519q16.221-16 39-16T519-518.779q16 16.221 16 39T518.779-441q-16.221 16-39 16Zm290 0Q747-425 731-441.221q-16-16.221-16-39T731.221-519q16.222-16 39-16Q793-535 809-518.779q16 16.221 16 39T808.779-441q-16.222 16-39 16Z"/></svg>