<svg xmlns="http://www.w3.org/2000/svg" height="48" viewBox="0 -960 960 960" width="48"><path d="M177-104q-28.725 0-50.863-22.137Q104-148.275 104-177v-606q0-28.725 22.137-50.862Q148.275-856 177-856h472l207 207v472q0 28.725-22.138 50.863Q811.725-104 783-104H177Zm130.684-167Q322-271 333-282.184q11-11.184 11-25.5T333-333q-11-11-25.316-11-14.316 0-25.5 11T271-307.684q0 14.316 11.184 25.5t25.5 11.184Zm0-173Q322-444 333-454.5q11-10.5 11-25.5t-11-26q-11-11-25.316-11-14.316 0-25.5 11T271-480q0 15 11.184 25.5t25.5 10.5Zm0-172Q322-616 333-627.184q11-11.184 11-25.5T333-678q-11-11-25.316-11-14.316 0-25.5 11T271-652.684q0 14.316 11.184 25.5t25.5 11.184ZM610-610h173L610-783v173Z"/></svg>