<svg xmlns="http://www.w3.org/2000/svg" height="48" viewBox="0 -960 960 960" width="48"><path d="M160-84q-28.725 0-50.863-21.637Q87-127.275 87-157v-209q0-28.725 22.137-50.862Q131.275-439 160-439h460v-178h73v178h99q28.725 0 50.862 22.138Q865-394.725 865-366v209q0 29.725-22.138 51.363Q820.725-84 792-84H160Zm142-177.105Q302-280 288.895-293q-13.106-13-32-13Q238-306 225-292.895q-13 13.106-13 32Q212-241 225.105-228.5q13.106 12.5 32 12.5Q276-216 289-228.605q13-12.606 13-32.5Zm150 0Q452-280 438.895-293q-13.106-13-32-13Q387-306 374.5-292.895q-12.5 13.106-12.5 32Q362-241 374.605-228.5q12.606 12.5 32.5 12.5Q426-216 439-228.605q13-12.606 13-32.5ZM556.105-216Q575-216 588-228.605q13-12.606 13-32.5Q601-280 587.895-293q-13.106-13-32-13Q537-306 524-292.895q-13 13.106-13 32Q511-241 524.105-228.5q13.106 12.5 32 12.5ZM566-664l-50-50q28-27 62.989-43.5 34.988-16.5 78.068-16.5 42.08 0 77.012 16.5Q769-741 797-714l-49 50q-17-16-40.409-26.5t-50-10.5Q630-701 606-690.5T566-664ZM466-764l-53-53q39.2-39.638 103.1-68.819Q580-915 657-915q76 0 139.5 29T901-817l-54 53q-31-33-79.5-55.5T657-842q-63 0-111 22.5T466-764Z"/></svg>