<svg xmlns="http://www.w3.org/2000/svg" height="48" viewBox="0 -960 960 960" width="48"><path d="M480-64q-85.64 0-161.98-32.52-76.34-32.52-132.66-88.84-56.32-56.32-88.84-132.66T64-480q0-85.64 32.52-161.98 32.52-76.34 88.84-132.66 56.32-56.32 132.66-88.84T480-896q85.64 0 161.98 32.52 76.34 32.52 132.66 88.84 56.32 56.32 88.84 132.66T896-480q0 85.64-32.52 161.98-32.52 76.34-88.84 132.66-56.32 56.32-132.66 88.84T480-64Zm-122-93 57-137q-41-15-73-45.5T293-414l-136 54q31.193 71.6 82.597 124.3Q291-183 358-157Zm-66-388q17-45 48.5-76.5T414-667l-54-136q-77 31-129 83.5T157-599l135 54Zm187.882 190Q532-355 568.5-391.382q36.5-36.383 36.5-88.5Q605-532 568.618-568.5q-36.383-36.5-88.5-36.5Q428-605 391.5-568.618q-36.5 36.383-36.5 88.5Q355-428 391.382-391.5q36.383 36.5 88.5 36.5ZM602-157q69-28 121-80t80-121l-137-56q-17 45-48 76t-73 45l57 136Zm65-389 136-56q-28.202-68.994-80.101-121.497T602-803l-55 137q40.901 14.171 71.951 45.086Q650-590 667-546Z"/></svg>