<svg xmlns="http://www.w3.org/2000/svg" height="48" viewBox="0 -960 960 960" width="48"><path d="M476-104q-77.833 0-146.928-29.6-69.094-29.6-119.866-81.025-50.773-51.424-80.489-120.4Q99-404 99-482t29.717-145.975q29.716-67.976 80.489-118.4Q259.978-796.8 329.072-826.4 398.167-856 476-856q84.742 0 161.371 37T767-715v-107h73v233H606v-73h110q-44-55-106.532-88Q546.937-783 476-783q-125.836 0-214.918 86.5Q172-610 172-484.5 172-357 260.5-267T477-177q125.607 0 213.303-88.5Q778-354 777-481h74q1 157-108.5 267T476-104Zm125-203L439-466v-225h73v194l141 138-52 52Z"/></svg>