<svg xmlns="http://www.w3.org/2000/svg" height="48" viewBox="0 -960 960 960" width="48"><path d="M200-146q-59-55-92.5-130.719T74-439.635q0-84.38 31.543-158.594 31.544-74.214 86.833-129.469 55.289-55.255 129.303-87.278Q395.693-847 479.847-847q84.153 0 158.291 32.132 74.138 32.131 129.395 87.287 55.256 55.155 87.362 129.413Q887-523.911 887-439.481 887-352 853-277t-92 131l-53-52q48.62-45.867 77.31-107.24Q814-366.614 814-440.105 814-579 716.452-676.5q-97.549-97.5-236.5-97.5Q341-774 244-676.587q-97 97.412-97 236.168 0 73.419 27.431 134.858Q201.861-244.122 252-198l-52 52Zm113-113q-37-33-58-80.212t-21-101.056Q234-543 305.441-615t174.5-72Q583-687 655-615.25t72 175.132Q727-386 705.5-339.5 684-293 648-259l-52-52q26-23 42-56.041T654-440q0-72.525-50.761-123.263Q552.478-614 479.92-614q-72.558 0-122.739 50.582Q307-512.837 307-440.531q0 39.531 15.537 73.12Q338.074-333.821 365-311l-52 52Zm167-95q-36.362 0-61.181-24.819Q394-403.638 394-440q0-36.362 24.819-61.681Q443.638-527 480-527q36.362 0 61.681 25.556Q567-475.887 567-440q0 36.362-25.556 61.181Q515.888-354 480-354Z"/></svg>