<svg width="183" height="40" viewBox="0 0 183 40" fill="none" xmlns="http://www.w3.org/2000/svg">
<path fill-rule="evenodd" clip-rule="evenodd" d="M28.3217 30.6154V18.1014H17.7019L18.4475 22.8281H22.8472V27.4042C21.8207 27.9705 20.8265 28.2291 19.432 28.2291C15.0582 28.2291 12.86 24.8347 12.86 20C12.86 15.1653 14.984 11.9149 19.361 11.9149C21.9724 11.9149 24.2093 12.8838 26.117 14.1113L26.9628 8.56299C24.9421 7.40423 22.3339 6.66446 19.2125 6.66446C11.3881 6.66446 6.57849 12.0589 6.57849 20.0327C6.57849 28.0065 11.0233 33.3322 19.0673 33.3322C22.5567 33.3322 25.6813 32.3666 28.3249 30.6121L28.3217 30.6154Z" fill="white"/>
<path fill-rule="evenodd" clip-rule="evenodd" d="M48.9739 25.0998C48.9739 21.0049 46.7757 19.0671 41.2657 17.018C38.1023 15.7938 37.4018 15.1588 37.4018 13.8462C37.4018 12.6547 38.3218 11.8494 40.236 11.8494C42.1501 11.8494 44.5678 12.5859 46.8403 13.9247L47.7957 8.5663C45.5878 7.4861 43.4606 6.85107 40.1553 6.85107C35.3102 6.85107 31.4915 9.48937 31.4915 14.4485C31.4915 18.694 33.693 20.3732 38.7608 22.3437C42.3244 23.7251 43.0571 24.3994 43.0571 25.8494C43.0571 27.3748 41.8079 28.1571 40.0068 28.1571C37.4761 28.1571 34.5774 27.1882 31.966 25.7774L31.0493 31.2111C33.622 32.4026 36.4851 33.1424 39.897 33.1424C44.9326 33.1424 48.9707 30.6907 48.9707 25.0998H48.9739Z" fill="white"/>
<path d="M81.9631 19.856C80.6203 19.856 79.5293 18.7496 79.5293 17.3879C79.5293 16.0262 80.6203 14.9198 81.9631 14.9198C83.306 14.9198 84.397 16.0262 84.397 17.3879C84.397 18.7496 83.306 19.856 81.9631 19.856Z" fill="white"/>
<path d="M61.7854 23.892C64.7099 21.9411 68.6803 19.4075 68.6803 14.5761C68.6803 9.27331 64.2516 6.86087 60.136 6.86087C53.9965 6.86087 51.5207 11.8101 51.1721 12.5826L55.9106 14.8314C56.2076 14.2946 57.5246 12.1571 59.726 12.1571C61.1495 12.1571 62.5408 13.342 62.5408 15.1849C62.5408 16.6677 60.8913 17.7905 58.8383 19.2078C55.5846 21.4566 51.5336 24.2553 51.5336 30.0065C51.5336 30.7594 51.6175 31.6006 51.7983 32.6383H68.6899V27.4861H58.2702C58.2702 26.3568 59.8842 25.1587 61.7887 23.8887L61.7854 23.892Z" fill="#00D4EA"/>
<path d="M83.448 14.694C83.122 14.586 82.5474 14.4256 81.9664 14.4256C80.3524 14.4256 79.0451 15.7513 79.0451 17.3879C79.0451 18.5009 79.6261 19.4501 80.5461 19.9738C80.9496 20.2063 81.9793 20.5172 82.2666 20.6743C83.4932 21.3421 84.3292 22.6547 84.3292 24.1637C84.3292 26.3503 82.5829 28.1212 80.4267 28.1212C78.3834 28.1212 76.7049 26.527 76.5403 24.4976L71.311 25.6498C72.1632 30.0262 75.9689 33.329 80.5364 33.329C85.7301 33.329 89.9393 29.0606 89.9393 23.7938C89.9393 19.5581 87.2182 15.9313 83.448 14.6874V14.694ZM81.9664 19.3617C80.8947 19.3617 80.0232 18.4779 80.0232 17.3912C80.0232 16.3045 80.8947 15.4207 81.9664 15.4207C83.038 15.4207 83.9096 16.3045 83.9096 17.3912C83.9096 18.4779 83.038 19.3617 81.9664 19.3617Z" fill="#00D4EA"/>
<path d="M77.8411 12.3568H83.8805C87.4538 12.3568 88.7514 9.4206 88.7514 7.21765H72.9379L71.9082 19.1227H77.1665L77.8379 12.36L77.8411 12.3568Z" fill="#00D4EA"/>
<path d="M103.907 12.4026C106.334 12.4026 107.893 12.7071 109.181 13.5876C111.369 15.077 111.55 17.4796 111.55 18.3601C111.55 21.2766 109.781 23.4043 107.115 24.0131L113.348 32.6743H109.662L103.939 24.3765H103.4V32.6743H100.343V12.4026H103.91H103.907ZM103.397 21.7022H104.355C105.194 21.7022 108.613 21.6105 108.613 18.3896C108.613 15.5319 105.947 15.2603 104.446 15.2603H103.397V21.7054V21.7022Z" fill="white"/>
<path d="M128.093 27.7807H119.552L117.364 32.6743H114.068L124.02 11.2144L133.49 32.6743H130.195L128.096 27.7807H128.093ZM126.863 24.8642L123.897 17.9935L120.811 24.8642H126.867H126.863Z" fill="white"/>
<path d="M140.201 12.4026C142.99 12.4026 145.417 12.7071 147.635 14.3797C150.062 16.2324 151.473 19.1817 151.473 22.5565C151.473 25.9313 150.095 28.8478 147.457 30.7333C145.12 32.4059 142.932 32.6776 140.143 32.6776H136.008V12.4059H140.204L140.201 12.4026ZM139.062 29.7578H140.382C141.88 29.7578 143.949 29.6367 145.689 28.3306C147.067 27.2668 148.416 25.3225 148.416 22.5565C148.416 19.7905 147.157 17.784 145.718 16.7202C143.978 15.4436 141.851 15.3225 140.382 15.3225H139.062V29.7611V29.7578Z" fill="white"/>
<path d="M158.365 12.4026V32.6743H155.308V12.4026H158.365Z" fill="white"/>
<path d="M183 22.5532C183 28.5106 178.594 33.0703 172.6 33.0703C166.605 33.0703 162.199 28.5106 162.199 22.5532C162.199 16.5957 166.605 12.036 172.6 12.036C178.594 12.036 183 16.5957 183 22.5532ZM179.943 22.5532C179.943 18.0556 176.886 14.8936 172.6 14.8936C168.313 14.8936 165.256 18.0556 165.256 22.5532C165.256 27.0507 168.313 30.2127 172.6 30.2127C176.886 30.2127 179.943 27.0507 179.943 22.5532Z" fill="white"/>
</svg>
