<svg width="567" height="123" viewBox="0 0 567 123" fill="none" xmlns="http://www.w3.org/2000/svg">
<g clip-path="url(#clip0_13_160)">
<path fill-rule="evenodd" clip-rule="evenodd" d="M87.74 93.53V55.3H54.84L57.15 69.74H70.78V83.72C67.6 85.45 64.52 86.24 60.2 86.24C46.65 86.24 39.84 75.87 39.84 61.1C39.84 46.33 46.42 36.4 59.98 36.4C68.07 36.4 75 39.36 80.91 43.11L83.53 26.16C77.27 22.62 69.19 20.36 59.52 20.36C35.28 20.36 20.38 36.84 20.38 61.2C20.38 85.56 34.15 101.83 59.07 101.83C69.88 101.83 79.56 98.88 87.75 93.52L87.74 93.53Z" fill="#007CFF"/>
<path fill-rule="evenodd" clip-rule="evenodd" d="M151.72 76.68C151.72 64.17 144.91 58.25 127.84 51.99C118.04 48.25 115.87 46.31 115.87 42.3C115.87 38.66 118.72 36.2 124.65 36.2C130.58 36.2 138.07 38.45 145.11 42.54L148.07 26.17C141.23 22.87 134.64 20.93 124.4 20.93C109.39 20.93 97.56 28.99 97.56 44.14C97.56 57.11 104.38 62.24 120.08 68.26C131.12 72.48 133.39 74.54 133.39 78.97C133.39 83.63 129.52 86.02 123.94 86.02C116.1 86.02 107.12 83.06 99.03 78.75L96.19 95.35C104.16 98.99 113.03 101.25 123.6 101.25C139.2 101.25 151.71 93.76 151.71 76.68H151.72Z" fill="#007CFF"/>
<path d="M253.92 60.66C249.76 60.66 246.38 57.28 246.38 53.12C246.38 48.96 249.76 45.58 253.92 45.58C258.08 45.58 261.46 48.96 261.46 53.12C261.46 57.28 258.08 60.66 253.92 60.66Z" fill="white"/>
<path d="M191.41 72.99C200.47 67.03 212.77 59.29 212.77 44.53C212.77 28.33 199.05 20.96 186.3 20.96C167.28 20.96 159.61 36.08 158.53 38.44L173.21 45.31C174.13 43.67 178.21 37.14 185.03 37.14C189.44 37.14 193.75 40.76 193.75 46.39C193.75 50.92 188.64 54.35 182.28 58.68C172.2 65.55 159.65 74.1 159.65 91.67C159.65 93.97 159.91 96.54 160.47 99.71H212.8V83.97H180.52C180.52 80.52 185.52 76.86 191.42 72.98L191.41 72.99Z" fill="#00D4EA"/>
<path d="M258.52 44.89C257.51 44.56 255.73 44.07 253.93 44.07C248.93 44.07 244.88 48.12 244.88 53.12C244.88 56.52 246.68 59.42 249.53 61.02C250.78 61.73 253.97 62.68 254.86 63.16C258.66 65.2 261.25 69.21 261.25 73.82C261.25 80.5 255.84 85.91 249.16 85.91C242.83 85.91 237.63 81.04 237.12 74.84L220.92 78.36C223.56 91.73 235.35 101.82 249.5 101.82C265.59 101.82 278.63 88.78 278.63 72.69C278.63 59.75 270.2 48.67 258.52 44.87V44.89ZM253.93 59.15C250.61 59.15 247.91 56.45 247.91 53.13C247.91 49.81 250.61 47.11 253.93 47.11C257.25 47.11 259.95 49.81 259.95 53.13C259.95 56.45 257.25 59.15 253.93 59.15Z" fill="#00D4EA"/>
<path d="M241.15 37.75H259.86C270.93 37.75 274.95 28.78 274.95 22.05H225.96L222.77 58.42H239.06L241.14 37.76L241.15 37.75Z" fill="#00D4EA"/>
<path d="M321.9 37.89C329.42 37.89 334.25 38.82 338.24 41.51C345.02 46.06 345.58 53.4 345.58 56.09C345.58 65 340.1 71.5 331.84 73.36L351.15 99.82H339.73L322 74.47H320.33V99.82H310.86V37.89H321.91H321.9ZM320.32 66.3H323.29C325.89 66.3 336.48 66.02 336.48 56.18C336.48 47.45 328.22 46.62 323.57 46.62H320.32V66.31V66.3Z" fill="#5E514D"/>
<path d="M396.83 84.87H370.37L363.59 99.82H353.38L384.21 34.26L413.55 99.82H403.34L396.84 84.87H396.83ZM393.02 75.96L383.83 54.97L374.27 75.96H393.03H393.02Z" fill="#5E514D"/>
<path d="M434.34 37.89C442.98 37.89 450.5 38.82 457.37 43.93C464.89 49.59 469.26 58.6 469.26 68.91C469.26 79.22 464.99 88.13 456.82 93.89C449.58 99 442.8 99.83 434.16 99.83H421.35V37.9H434.35L434.34 37.89ZM430.81 90.91H434.9C439.54 90.91 445.95 90.54 451.34 86.55C455.61 83.3 459.79 77.36 459.79 68.91C459.79 60.46 455.89 54.33 451.43 51.08C446.04 47.18 439.45 46.81 434.9 46.81H430.81V90.92V90.91Z" fill="#5E514D"/>
<path d="M490.61 37.89V99.82H481.14V37.89H490.61Z" fill="#5E514D"/>
<path d="M566.93 68.9C566.93 87.1 553.28 101.03 534.71 101.03C516.14 101.03 502.49 87.1 502.49 68.9C502.49 50.7 516.14 36.77 534.71 36.77C553.28 36.77 566.93 50.7 566.93 68.9ZM557.46 68.9C557.46 55.16 547.99 45.5 534.71 45.5C521.43 45.5 511.96 55.16 511.96 68.9C511.96 82.64 521.43 92.3 534.71 92.3C547.99 92.3 557.46 82.64 557.46 68.9Z" fill="#5E514D"/>
</g>
<defs>
<clipPath id="clip0_13_160">
<rect width="566.93" height="122.2" fill="white"/>
</clipPath>
</defs>
</svg>
