<svg version="1.2" xmlns="http://www.w3.org/2000/svg" viewBox="0 0 100 100" width="100" height="100">
	<title>New Project</title>
	<style>
		.s0 { fill: #000000 } 
	</style>
	<path id="soundmesh" fill-rule="evenodd" class="s0" d="m9.5 47.4v1.4q-0.7-0.3-1.4-0.4-0.7-0.2-1.4-0.2-1.1 0-1.7 0.3-0.5 0.4-0.5 1.1 0 0.5 0.4 0.8 0.4 0.3 1.6 0.6l0.5 0.1q1.6 0.3 2.3 0.9 0.6 0.7 0.6 1.8 0 1.2-1 2-1 0.7-2.7 0.7-0.8 0-1.6-0.1-0.8-0.2-1.6-0.4v-1.6q0.8 0.4 1.6 0.7 0.8 0.2 1.6 0.2 1.1 0 1.6-0.4 0.6-0.4 0.6-1 0-0.6-0.4-1-0.4-0.3-1.8-0.6l-0.5-0.1q-1.4-0.3-2.1-0.9-0.6-0.6-0.6-1.7 0-1.3 0.9-2 1-0.7 2.6-0.7 0.9 0 1.6 0.2 0.7 0.1 1.4 0.3zm6.4-0.5q1.9 0 3.1 1.3 1.1 1.3 1.1 3.5 0 2.3-1.1 3.6-1.2 1.2-3.1 1.2-2 0-3.1-1.2-1.1-1.3-1.1-3.6 0-2.2 1.1-3.5 1.1-1.3 3.1-1.3zm0 1.3q-1.2 0-1.9 1-0.7 0.9-0.7 2.5 0 1.7 0.7 2.6 0.7 1 1.9 1 1.2 0 1.9-1 0.7-0.9 0.7-2.6 0-1.6-0.7-2.5-0.7-1-1.9-1zm6.5 4.5v-5.5h1.5v5.4q0 1.3 0.5 2 0.5 0.6 1.5 0.6 1.2 0 1.9-0.7 0.8-0.8 0.8-2.2v-5.1h1.5v9.1h-1.5v-1.4q-0.6 0.8-1.3 1.2-0.7 0.4-1.7 0.4-1.6 0-2.4-0.9-0.8-1-0.8-2.9zm18.3-1.9v5.5h-1.5v-5.5q0-1.3-0.5-1.9-0.5-0.7-1.5-0.7-1.2 0-1.9 0.8-0.7 0.8-0.7 2.1v5.2h-1.5v-9.1h1.5v1.4q0.5-0.8 1.3-1.3 0.7-0.4 1.7-0.4 1.5 0 2.3 1 0.8 1 0.8 2.9zm9.1-2.3v-4.9h1.5v12.7h-1.5v-1.4q-0.5 0.8-1.2 1.2-0.8 0.4-1.8 0.4-1.6 0-2.7-1.3-1-1.3-1-3.5 0-2.1 1-3.4 1.1-1.4 2.7-1.4 1 0 1.8 0.4 0.7 0.4 1.2 1.2zm-5.2 3.2q0 1.7 0.7 2.6 0.7 1 1.9 1 1.2 0 1.9-1 0.7-0.9 0.7-2.6 0-1.6-0.7-2.6-0.7-0.9-1.9-0.9-1.2 0-1.9 0.9-0.7 1-0.7 2.6zm16.9-2.8q0.5-1 1.3-1.5 0.8-0.5 1.8-0.5 1.5 0 2.3 1 0.7 1 0.7 2.9v5.5h-1.5v-5.5q0-1.3-0.4-1.9-0.5-0.7-1.5-0.7-1.1 0-1.8 0.8-0.7 0.8-0.7 2.1v5.2h-1.5v-5.5q0-1.3-0.5-1.9-0.4-0.7-1.4-0.7-1.2 0-1.8 0.8-0.7 0.8-0.7 2.1v5.2h-1.5v-9.1h1.5v1.4q0.5-0.9 1.2-1.3 0.7-0.4 1.7-0.4 1 0 1.7 0.5 0.7 0.5 1.1 1.5zm16.9 2.5v0.7h-6.9q0.1 1.5 1 2.4 0.8 0.8 2.3 0.8 0.9 0 1.7-0.3 0.8-0.2 1.6-0.6v1.4q-0.8 0.4-1.7 0.6-0.8 0.1-1.7 0.1-2.2 0-3.5-1.2-1.2-1.3-1.2-3.5 0-2.2 1.2-3.5 1.2-1.4 3.2-1.4 1.9 0 3 1.2 1 1.2 1 3.3zm-6.8-0.5h5.3q0-1.2-0.7-2-0.6-0.7-1.7-0.7-1.3 0-2.1 0.7-0.7 0.7-0.8 2zm15.1-3.5v1.4q-0.6-0.3-1.3-0.4-0.7-0.2-1.4-0.2-1.1 0-1.7 0.3-0.6 0.4-0.6 1.1 0 0.5 0.4 0.8 0.4 0.3 1.7 0.6l0.5 0.1q1.6 0.3 2.2 0.9 0.7 0.7 0.7 1.8 0 1.2-1 2-1 0.7-2.8 0.7-0.7 0-1.5-0.1-0.8-0.2-1.7-0.4v-1.6q0.9 0.4 1.7 0.7 0.8 0.2 1.6 0.2 1 0 1.6-0.4 0.6-0.4 0.6-1 0-0.6-0.4-1-0.5-0.3-1.8-0.6l-0.6-0.1q-1.4-0.3-2-0.9-0.6-0.6-0.6-1.7 0-1.3 0.9-2 0.9-0.7 2.6-0.7 0.8 0 1.6 0.2 0.7 0.1 1.3 0.3zm10.5 3.4v5.5h-1.5v-5.5q0-1.3-0.5-1.9-0.5-0.7-1.5-0.7-1.2 0-1.9 0.8-0.7 0.8-0.7 2.1v5.2h-1.6v-12.7h1.6v5q0.5-0.8 1.2-1.3 0.8-0.4 1.7-0.4 1.6 0 2.4 1 0.8 1 0.8 2.9z"/>
</svg>