<?xml version="1.0" encoding="UTF-8" standalone="no"?>
<!DOCTYPE svg PUBLIC "-//W3C//DTD SVG 1.1//EN" "http://www.w3.org/Graphics/SVG/1.1/DTD/svg11.dtd">
<svg width="100%" height="100%" viewBox="0 0 600 150" version="1.1" xmlns="http://www.w3.org/2000/svg" xmlns:xlink="http://www.w3.org/1999/xlink" xml:space="preserve" xmlns:serif="http://www.serif.com/" style="fill-rule:evenodd;clip-rule:evenodd;stroke-linejoin:round;stroke-miterlimit:2;">
    <g transform="matrix(3,0,0,3,-39.357,7.03026)">
        <g transform="matrix(48,0,0,48,18.5328,36.5927)">
            <path d="M0.052,-0.132C0.052,-0.185 0.075,-0.225 0.121,-0.254C0.167,-0.283 0.24,-0.303 0.341,-0.314C0.341,-0.327 0.339,-0.339 0.336,-0.35C0.333,-0.362 0.328,-0.373 0.321,-0.382C0.314,-0.391 0.305,-0.398 0.294,-0.403C0.282,-0.407 0.269,-0.41 0.252,-0.41C0.227,-0.41 0.203,-0.405 0.181,-0.396C0.158,-0.387 0.135,-0.375 0.114,-0.362L0.072,-0.439C0.099,-0.456 0.13,-0.471 0.164,-0.484C0.197,-0.497 0.234,-0.503 0.273,-0.503C0.335,-0.503 0.381,-0.485 0.411,-0.449C0.441,-0.412 0.456,-0.36 0.456,-0.291L0.456,-0L0.362,-0L0.353,-0.054L0.35,-0.054C0.328,-0.035 0.305,-0.02 0.28,-0.007C0.255,0.006 0.227,0.012 0.198,0.012C0.155,0.012 0.119,-0.001 0.093,-0.028C0.066,-0.054 0.052,-0.089 0.052,-0.132ZM0.164,-0.141C0.164,-0.119 0.171,-0.103 0.184,-0.093C0.197,-0.083 0.213,-0.078 0.234,-0.078C0.254,-0.078 0.272,-0.083 0.289,-0.092C0.306,-0.101 0.323,-0.115 0.341,-0.132L0.341,-0.242C0.308,-0.238 0.28,-0.233 0.257,-0.226C0.234,-0.219 0.216,-0.212 0.203,-0.203C0.189,-0.195 0.179,-0.186 0.173,-0.175C0.167,-0.164 0.164,-0.153 0.164,-0.141Z" style="fill:white;fill-rule:nonzero;"/>
        </g>
        <g transform="matrix(48,0,0,48,41.7168,36.5927)">
            <path d="M0.034,-0.062L0.266,-0.4L0.06,-0.4L0.06,-0.491L0.41,-0.491L0.41,-0.43L0.179,-0.092L0.418,-0.092L0.418,-0L0.034,-0L0.034,-0.062Z" style="fill:white;fill-rule:nonzero;"/>
        </g>
        <g transform="matrix(48,0,0,48,60.5808,36.5927)">
            <path d="M0.068,-0.491L0.183,-0.491L0.183,-0.198C0.183,-0.157 0.189,-0.129 0.201,-0.112C0.213,-0.095 0.232,-0.087 0.259,-0.087C0.28,-0.087 0.299,-0.092 0.316,-0.103C0.332,-0.114 0.349,-0.131 0.368,-0.155L0.368,-0.491L0.483,-0.491L0.483,-0L0.389,-0L0.38,-0.072L0.377,-0.072C0.356,-0.047 0.333,-0.026 0.308,-0.011C0.282,0.004 0.253,0.012 0.219,0.012C0.166,0.012 0.128,-0.005 0.104,-0.039C0.08,-0.072 0.068,-0.12 0.068,-0.183L0.068,-0.491Z" style="fill:white;fill-rule:nonzero;"/>
        </g>
        <g transform="matrix(48,0,0,48,85.3488,36.5927)">
            <path d="M0.073,-0.491L0.168,-0.491L0.176,-0.404L0.18,-0.404C0.197,-0.436 0.218,-0.461 0.243,-0.477C0.268,-0.495 0.293,-0.503 0.319,-0.503C0.342,-0.503 0.361,-0.5 0.375,-0.493L0.355,-0.393C0.346,-0.396 0.338,-0.398 0.331,-0.399C0.324,-0.4 0.315,-0.401 0.304,-0.401C0.285,-0.401 0.264,-0.394 0.243,-0.379C0.222,-0.364 0.203,-0.337 0.188,-0.3L0.188,-0L0.073,-0L0.073,-0.491Z" style="fill:white;fill-rule:nonzero;"/>
        </g>
        <g transform="matrix(48,0,0,48,100.037,36.5927)">
            <path d="M0.052,-0.132C0.052,-0.185 0.075,-0.225 0.121,-0.254C0.167,-0.283 0.24,-0.303 0.341,-0.314C0.341,-0.327 0.339,-0.339 0.336,-0.35C0.333,-0.362 0.328,-0.373 0.321,-0.382C0.314,-0.391 0.305,-0.398 0.294,-0.403C0.282,-0.407 0.269,-0.41 0.252,-0.41C0.227,-0.41 0.203,-0.405 0.181,-0.396C0.158,-0.387 0.135,-0.375 0.114,-0.362L0.072,-0.439C0.099,-0.456 0.13,-0.471 0.164,-0.484C0.197,-0.497 0.234,-0.503 0.273,-0.503C0.335,-0.503 0.381,-0.485 0.411,-0.449C0.441,-0.412 0.456,-0.36 0.456,-0.291L0.456,-0L0.362,-0L0.353,-0.054L0.35,-0.054C0.328,-0.035 0.305,-0.02 0.28,-0.007C0.255,0.006 0.227,0.012 0.198,0.012C0.155,0.012 0.119,-0.001 0.093,-0.028C0.066,-0.054 0.052,-0.089 0.052,-0.132ZM0.164,-0.141C0.164,-0.119 0.171,-0.103 0.184,-0.093C0.197,-0.083 0.213,-0.078 0.234,-0.078C0.254,-0.078 0.272,-0.083 0.289,-0.092C0.306,-0.101 0.323,-0.115 0.341,-0.132L0.341,-0.242C0.308,-0.238 0.28,-0.233 0.257,-0.226C0.234,-0.219 0.216,-0.212 0.203,-0.203C0.189,-0.195 0.179,-0.186 0.173,-0.175C0.167,-0.164 0.164,-0.153 0.164,-0.141Z" style="fill:white;fill-rule:nonzero;"/>
        </g>
        <g transform="matrix(48,0,0,48,123.221,36.5927)">
            <path d="M0.032,-0.25C0.032,-0.291 0.039,-0.328 0.054,-0.361C0.069,-0.394 0.088,-0.421 0.113,-0.444C0.138,-0.466 0.166,-0.483 0.199,-0.495C0.231,-0.506 0.265,-0.512 0.3,-0.512C0.33,-0.512 0.358,-0.507 0.383,-0.497C0.407,-0.487 0.429,-0.473 0.446,-0.456L0.368,-0.35C0.357,-0.359 0.346,-0.366 0.338,-0.369C0.329,-0.372 0.319,-0.374 0.31,-0.374C0.278,-0.374 0.253,-0.363 0.235,-0.341C0.217,-0.318 0.208,-0.288 0.208,-0.25C0.208,-0.212 0.217,-0.182 0.235,-0.16C0.254,-0.137 0.277,-0.126 0.304,-0.126C0.32,-0.126 0.335,-0.129 0.347,-0.136C0.361,-0.143 0.373,-0.15 0.384,-0.158L0.452,-0.05C0.427,-0.028 0.399,-0.012 0.369,-0.003C0.338,0.007 0.31,0.012 0.284,0.012C0.249,0.012 0.216,0.006 0.185,-0.006C0.154,-0.017 0.128,-0.034 0.105,-0.057C0.082,-0.079 0.065,-0.106 0.051,-0.139C0.039,-0.172 0.032,-0.209 0.032,-0.25Z" style="fill:white;fill-rule:nonzero;"/>
        </g>
        <g transform="matrix(48,0,0,48,143.477,36.5927)">
            <path d="M0.042,-0.142C0.042,-0.194 0.063,-0.235 0.106,-0.265C0.149,-0.294 0.218,-0.314 0.314,-0.324C0.31,-0.359 0.287,-0.376 0.244,-0.376C0.226,-0.376 0.207,-0.373 0.187,-0.366C0.167,-0.359 0.144,-0.348 0.118,-0.334L0.058,-0.446C0.093,-0.467 0.129,-0.484 0.165,-0.495C0.201,-0.506 0.239,-0.512 0.278,-0.512C0.343,-0.512 0.394,-0.494 0.431,-0.457C0.468,-0.42 0.486,-0.36 0.486,-0.278L0.486,-0L0.346,-0L0.334,-0.048L0.33,-0.048C0.31,-0.03 0.289,-0.016 0.267,-0.005C0.244,0.006 0.219,0.012 0.192,0.012C0.169,0.012 0.148,0.008 0.129,-0.001C0.11,-0.009 0.095,-0.02 0.082,-0.034C0.069,-0.048 0.059,-0.064 0.052,-0.083C0.045,-0.102 0.042,-0.121 0.042,-0.142ZM0.206,-0.156C0.206,-0.132 0.221,-0.12 0.252,-0.12C0.266,-0.12 0.278,-0.123 0.286,-0.13C0.296,-0.136 0.305,-0.144 0.314,-0.154L0.314,-0.222C0.273,-0.216 0.244,-0.207 0.229,-0.195C0.214,-0.183 0.206,-0.17 0.206,-0.156Z" style="fill:white;fill-rule:nonzero;"/>
        </g>
        <g transform="matrix(48,0,0,48,167.573,36.5927)">
            <path d="M0.094,-0.164C0.139,-0.131 0.18,-0.114 0.216,-0.114C0.234,-0.114 0.247,-0.117 0.255,-0.122C0.262,-0.127 0.266,-0.134 0.266,-0.144C0.266,-0.151 0.263,-0.157 0.258,-0.162C0.253,-0.167 0.246,-0.171 0.236,-0.175C0.228,-0.18 0.217,-0.184 0.206,-0.188C0.195,-0.192 0.183,-0.197 0.17,-0.202C0.155,-0.208 0.141,-0.215 0.126,-0.224C0.111,-0.232 0.097,-0.242 0.085,-0.254C0.073,-0.266 0.063,-0.28 0.056,-0.296C0.048,-0.311 0.044,-0.329 0.044,-0.35C0.044,-0.375 0.049,-0.397 0.059,-0.417C0.068,-0.437 0.082,-0.454 0.099,-0.468C0.116,-0.482 0.137,-0.493 0.162,-0.5C0.186,-0.508 0.213,-0.512 0.242,-0.512C0.283,-0.512 0.319,-0.505 0.348,-0.492C0.378,-0.478 0.404,-0.463 0.426,-0.446L0.35,-0.344C0.332,-0.357 0.314,-0.368 0.297,-0.375C0.28,-0.382 0.263,-0.386 0.248,-0.386C0.219,-0.386 0.204,-0.377 0.204,-0.358C0.204,-0.351 0.206,-0.346 0.212,-0.341C0.217,-0.336 0.223,-0.332 0.232,-0.328C0.241,-0.324 0.251,-0.32 0.262,-0.317C0.273,-0.313 0.285,-0.309 0.298,-0.304C0.313,-0.299 0.328,-0.292 0.343,-0.284C0.358,-0.276 0.372,-0.266 0.385,-0.255C0.397,-0.243 0.407,-0.229 0.414,-0.213C0.422,-0.196 0.426,-0.177 0.426,-0.154C0.426,-0.131 0.421,-0.109 0.412,-0.089C0.403,-0.068 0.389,-0.051 0.371,-0.035C0.353,-0.021 0.331,-0.009 0.304,-0.001C0.277,0.008 0.247,0.012 0.212,0.012C0.18,0.012 0.146,0.006 0.111,-0.007C0.075,-0.02 0.044,-0.037 0.018,-0.058L0.094,-0.164Z" style="fill:white;fill-rule:nonzero;"/>
        </g>
        <g transform="matrix(48,0,0,48,187.349,36.5927)">
            <path d="M0.08,-0.366L0.014,-0.366L0.014,-0.494L0.09,-0.5L0.11,-0.63L0.252,-0.63L0.252,-0.5L0.366,-0.5L0.366,-0.366L0.252,-0.366L0.252,-0.195C0.252,-0.167 0.258,-0.148 0.27,-0.138C0.282,-0.127 0.296,-0.122 0.312,-0.122C0.32,-0.122 0.328,-0.123 0.336,-0.125C0.343,-0.126 0.35,-0.128 0.356,-0.13L0.382,-0.006C0.369,-0.002 0.353,0.002 0.334,0.006C0.315,0.01 0.292,0.012 0.264,0.012C0.231,0.012 0.203,0.007 0.181,-0.003C0.158,-0.012 0.139,-0.026 0.124,-0.044C0.109,-0.062 0.098,-0.084 0.091,-0.109C0.084,-0.134 0.08,-0.161 0.08,-0.192L0.08,-0.366Z" style="fill:white;fill-rule:nonzero;"/>
        </g>
    </g>
</svg>
