<svg xmlns="http://www.w3.org/2000/svg" height="48" viewBox="0 -960 960 960" width="48"><path d="M303.807-393Q286-393 273.5-405.693t-12.5-30.5Q261-454 273.693-466.5t30.5-12.5Q322-479 334.5-466.307t12.5 30.5Q347-418 334.307-405.5t-30.5 12.5Zm179 0Q465-393 452.5-405.693t-12.5-30.5Q440-454 452.693-466.5t30.5-12.5Q501-479 513.5-466.307t12.5 30.5Q526-418 513.307-405.5t-30.5 12.5Zm172 0Q637-393 624.5-405.693t-12.5-30.5Q612-454 624.693-466.5t30.5-12.5Q673-479 685.5-466.307t12.5 30.5Q698-418 685.307-405.5t-30.5 12.5ZM177-65q-28.725 0-50.863-22.138Q104-109.275 104-138v-626q0-28.725 22.137-50.862Q148.275-837 177-837h49v-58h78v58h352v-58h78v58h49q28.725 0 50.862 22.138Q856-792.725 856-764v626q0 28.725-22.138 50.862Q811.725-65 783-65H177Zm0-73h606v-442H177v442Z"/></svg>