<svg xmlns="http://www.w3.org/2000/svg" height="48" viewBox="0 -960 960 960" width="48"><path d="M-8-232v-61q0-43.021 43.5-69.01Q79-388 150.376-388q8.165 0 15.395.5 7.229.5 15.229.152-10 20.348-14.5 40.024Q162-327.648 162-305v73H-8Zm240 0v-73q0-34 17.478-62.185Q266.955-395.37 301-416q33.867-21 79.292-31.5 45.425-10.5 99.546-10.5 55.162 0 100.559 10.5Q625.793-437 660-416q33 21 50.5 49t17.5 62v73H232Zm566 0v-73.143q0-22.088-4.5-42.407-4.5-20.32-13.5-39.723 8 .273 15.229-.227 7.228-.5 14.771-.5 71.7 0 114.85 25.639Q968-336.722 968-293v61H798ZM149.611-416Q119-416 97-438.005q-22-22.006-22-52.907Q75-522 97.005-544q22.006-22 52.907-22Q181-566 203-544.075t22 53.464Q225-460 203.075-438q-21.925 22-53.464 22Zm660 0Q779-416 757-438.005q-22-22.006-22-52.907Q735-522 757.005-544q22.006-22 52.907-22Q841-566 863-544.075t22 53.464Q885-460 863.075-438q-21.925 22-53.464 22Zm-329.14-72q-53.138 0-90.804-37.211Q352-562.421 352-615.579 352-669 389.667-706.5q37.666-37.5 90.804-37.5 53.4 0 90.464 37.268Q608-669.465 608-615.765q0 53.432-37.065 90.598Q533.871-488 480.471-488Z"/></svg>