<svg xmlns="http://www.w3.org/2000/svg" height="48" viewBox="0 -960 960 960" width="48"><path d="M483.93-236q18.07 0 30.57-12.43 12.5-12.429 12.5-30.5 0-18.07-12.43-30.57-12.429-12.5-30.5-12.5-18.07 0-30.57 12.43-12.5 12.429-12.5 30.5 0 18.07 12.43 30.57 12.429 12.5 30.5 12.5ZM443-389h71q0-28.324 6-51.162Q526-463 563-494q31-25 44.5-50.919 13.5-25.919 13.5-57.987 0-56.51-36.848-89.302Q547.304-725 486.469-725 432-725 392.5-698.5 353-672 336-625l63 24q9-27 30.5-44t53.5-17q32 0 53 17.5t21 45.5q0 22-13.714 41.5Q529.571-538 505-517q-33 28-47.5 54T443-389Zm36.542 325Q394.36-64 318.52-97.02q-75.84-33.02-132.16-89.34-56.32-56.32-89.34-132.291T64-480q0-86.272 33.079-162.149 33.079-75.878 89.686-132.47 56.606-56.592 132.216-88.986Q394.59-896 479.557-896q86.329 0 162.512 32.395 76.183 32.394 132.557 89Q831-718 863.5-641.958q32.5 76.041 32.5 162.5 0 85.458-32.395 160.797-32.394 75.338-88.986 131.921-56.592 56.582-132.616 89.661Q565.979-64 479.542-64Z"/></svg>