<svg xmlns="http://www.w3.org/2000/svg" height="48" viewBox="0 -960 960 960" width="48"><path d="M444-40v-361.62Q422-412 408-433t-14-47q0-35.888 24.819-61.444Q443.638-567 480-567q36.362 0 61.681 25.556Q567-515.888 567-480q0 25-14 45.5t-36 31.386V-40h-73ZM200-186q-59-55-92.5-130.719T74-479.635q0-84.38 31.543-158.594 31.544-74.214 86.833-129.469 55.289-55.255 129.303-87.278Q395.693-887 479.847-887q84.153 0 158.291 32.132 74.138 32.131 129.395 87.287 55.256 55.155 87.362 129.413Q887-563.911 887-479.481 887-392 853-317t-92 131l-53-52q48.62-45.867 77.31-107.24Q814-406.614 814-480.105 814-619 716.452-716.5q-97.549-97.5-236.5-97.5Q341-814 244-716.587q-97 97.412-97 236.168 0 73.419 27.431 134.858Q201.861-284.122 252-238l-52 52Zm113-113q-37-33-58-80.212t-21-101.056Q234-583 305.441-655t174.5-72Q583-727 655-655.25t72 175.132Q727-426 705.5-379.5 684-333 648-299l-52-52q26-23 42-56.041T654-480q0-72.525-50.761-123.263Q552.478-654 479.92-654q-72.558 0-122.739 50.582Q307-552.837 307-480.531q0 39.531 15.537 73.12Q338.074-373.821 365-351l-52 52Z"/></svg>