<svg xmlns="http://www.w3.org/2000/svg" height="48" viewBox="0 -960 960 960" width="48"><path d="M479.86-56Q392-56 314.753-89.477q-77.246-33.477-134.388-90.867-57.141-57.389-90.753-134.663T56-480.14Q56-568 89.477-645.247q33.477-77.246 90.867-134.388 57.389-57.141 134.663-90.753T480.14-904q87.86 0 165.107 33.477 77.246 33.477 134.388 90.867 57.141 57.389 90.753 134.663T904-479.86q0 87.86-33.477 165.107-33.477 77.246-90.867 134.388-57.389 57.141-134.663 90.753T479.86-56ZM436-130v-85q-37 0-61.5-26.262-24.5-26.263-24.5-63.286V-350L138-562q-5 19.5-7 40.5t-2 41.594Q129-346 216.5-245.5T436-130Zm303-112q23.286-24.287 40.12-52.145 16.834-27.857 28.554-58.282 11.719-30.425 17.522-62.824Q831-447.65 831-481.097 831-590 771.407-679.545 711.815-769.091 611-810v17.98q0 37.02-24.263 63.52Q562.475-702 525-702h-89v90q0 18-13.5 29T391-572h-87v91h267.429q16.392 0 27.982 13.569Q611-453.862 611-437.5V-304h44.212q29.788 0 52.628 17.277T739-242Z"/></svg>