<?xml version="1.0" encoding="utf-8"?>
<!-- Generator: Adobe Illustrator 16.0.0, SVG Export Plug-In . SVG Version: 6.00 Build 0)  -->
<!DOCTYPE svg PUBLIC "-//W3C//DTD SVG 1.1//EN" "http://www.w3.org/Graphics/SVG/1.1/DTD/svg11.dtd">
<svg version="1.1" id="Layer_1" xmlns="http://www.w3.org/2000/svg" xmlns:xlink="http://www.w3.org/1999/xlink" x="0px" y="0px"
	 width="720px" height="720px" viewBox="0 0 720 720" enable-background="new 0 0 720 720" xml:space="preserve">
<g id="Layer_2">
	<rect x="71" y="381" fill="none" width="454" height="139"/>
	<g enable-background="new    ">
		<path fill="#454545" d="M86.273,472.885c0,2.095-0.751,3.892-2.246,5.391c-1.499,1.495-3.295,2.246-5.391,2.246H71v-55.928
			c0-10.479,3.067-17.632,9.209-21.45c6.138-3.818,12.803-5.728,19.99-5.728c3.741,0,7.524,0.713,11.343,2.134
			c3.818,1.425,6.851,3.481,9.097,6.177c4.492,5.84,6.738,13.329,6.738,22.461c0,9.434-2.246,17.07-6.738,22.91
			c-4.492,5.692-10.258,8.535-17.295,8.535c-3.745,0-7.04-0.674-9.883-2.021c-2.997-1.495-5.391-3.818-7.188-6.963V472.885z
			 M111.879,428.861c0-5.84-1.123-10.332-3.369-13.477s-5.468-4.717-9.658-4.717c-4.043,0-7.188,1.572-9.434,4.717
			c-2.099,2.847-3.145,7.339-3.145,13.477c0,5.692,1.123,9.96,3.369,12.803c2.246,3.145,5.464,4.717,9.658,4.717
			c3.892,0,6.963-1.572,9.209-4.717S111.879,434.252,111.879,428.861z"/>
		<path fill="#454545" d="M137.484,453.119c-3.145-2.695-5.391-6.324-6.738-10.894c-1.348-4.565-2.021-9.321-2.021-14.263
			c0-4.043,0.562-8.086,1.685-12.129s2.881-7.412,5.278-10.107c3.892-4.492,8.907-7.148,15.049-7.974
			c6.138-0.821,11.68-0.337,16.621,1.46c5.689,2.246,9.883,6.142,12.578,11.68c2.544,4.941,3.818,10.708,3.818,17.295
			c0,4.794-0.526,8.911-1.572,12.354c-1.049,3.446-2.397,6.366-4.043,8.76c-3.594,4.941-8.163,8.013-13.701,9.209
			c-4.941,1.348-9.921,1.46-14.937,0.337C144.482,457.724,140.478,455.814,137.484,453.119z M148.266,413.588
			c-3.145,3.446-4.569,8.574-4.268,15.386c0.298,6.815,1.572,11.567,3.818,14.263c0.898,1.2,2.471,2.211,4.717,3.032
			c2.246,0.825,4.527,0.898,6.851,0.225c2.32-0.674,4.38-2.358,6.177-5.054s2.769-7.036,2.92-13.027
			c0-5.391-0.863-9.434-2.583-12.129c-1.723-2.695-3.706-4.415-5.952-5.166c-2.246-0.747-4.492-0.786-6.738-0.112
			S149.312,412.542,148.266,413.588z"/>
		<path fill="#454545" d="M238.334,458.51h-7.861c-2.246,0-4.082-0.709-5.503-2.134c-1.425-1.421-2.134-3.257-2.134-5.503v-30.547
			c0-3.594-1.088-6.212-3.257-7.861c-2.172-1.646-4.604-2.471-7.3-2.471s-5.092,0.825-7.188,2.471
			c-2.099,1.649-3.145,4.268-3.145,7.861v38.184h-15.723v-35.039c0-10.181,2.657-16.993,7.974-20.439
			c5.313-3.442,11.192-5.313,17.632-5.615c6.587,0,12.652,1.724,18.193,5.166c5.538,3.446,8.311,10.409,8.311,20.889V458.51z"/>
		<path fill="#454545" d="M249.34,479.623V467.27h4.268c2.994,0,5.352-0.713,7.075-2.134c1.72-1.425,2.057-3.706,1.011-6.851
			l-20.889-59.521H258.1l12.129,42.227l10.557-36.836c0.898-3.594,3.292-5.391,7.188-5.391h10.781l-22.91,68.057
			c-1.797,4.941-4.043,8.458-6.738,10.557c-2.695,1.797-7.114,2.695-13.252,2.695c-0.449,0-0.976,0-1.572,0c-0.6,0-1.123,0-1.572,0
			c-0.449-0.151-1.011-0.264-1.685-0.337C250.351,479.658,249.789,479.623,249.34,479.623z"/>
		<path fill="#454545" d="M338.285,458.51h-15.947l-20.889-59.746h16.621l11.904,42.002l10.557-36.611
			c1.197-3.594,3.594-5.391,7.188-5.391h11.68L338.285,458.51z"/>
		<path fill="#454545" d="M363.441,381.244h8.086c2.095,0,3.892,0.751,5.391,2.246c1.495,1.498,2.246,3.296,2.246,5.391v4.717
			h-15.723V381.244z M363.441,398.764h8.086c2.095,0,3.892,0.751,5.391,2.246c1.495,1.499,2.246,3.296,2.246,5.391v52.109h-15.723
			V398.764z"/>
		<path fill="#454545" d="M380.512,381.244h8.086c2.095,0,3.892,0.713,5.391,2.134c1.495,1.425,2.246,3.184,2.246,5.278v69.854
			h-15.723V381.244z"/>
		<path fill="#454545" d="M399.604,381.244h8.086c2.095,0,3.892,0.713,5.391,2.134c1.495,1.425,2.246,3.184,2.246,5.278v69.854
			h-15.723V381.244z"/>
		<path fill="#454545" d="M459.574,440.092h11.23c-1.649,6.289-4.794,11.083-9.434,14.375c-4.644,3.446-10.483,5.166-17.52,5.166
			c-8.535,0-15.2-2.769-19.99-8.311c-4.794-5.391-7.188-13.101-7.188-23.135c0-9.581,2.319-17.07,6.963-22.461
			c4.79-5.538,11.455-8.311,19.99-8.311c8.984,0,15.947,2.695,20.889,8.086c4.79,5.542,7.188,13.252,7.188,23.135
			c0,0.601,0,1.123,0,1.572s0,0.751,0,0.898c0,0.751-0.077,1.274-0.225,1.572h-38.857c0.147,4.644,1.271,8.086,3.369,10.332
			c1.944,2.397,4.864,3.594,8.76,3.594c2.544,0,4.717-0.522,6.514-1.572c0.449-0.147,0.859-0.41,1.235-0.786
			c0.372-0.372,0.786-0.786,1.235-1.235c0.147-0.449,0.709-1.046,1.685-1.797C456.391,440.468,457.777,440.092,459.574,440.092z
			 M432.621,422.572h22.91c-0.302-4.043-1.348-7.036-3.145-8.984c-1.948-2.095-4.717-3.145-8.311-3.145
			c-3.296,0-5.991,1.05-8.086,3.145C433.892,415.687,432.769,418.681,432.621,422.572z"/>
	</g>
	<rect x="477" y="381" fill="none" width="454" height="139"/>
	<g enable-background="new    ">
		<path fill="#3A7DC0" d="M477.674,381.244h8.086c2.096,0,3.893,0.713,5.391,2.134c1.495,1.425,2.246,3.184,2.246,5.278v69.854
			h-15.723V381.244z"/>
		<path fill="#3A7DC0" d="M497.439,381.244h8.086c2.096,0,3.893,0.751,5.391,2.246c1.495,1.498,2.246,3.296,2.246,5.391v4.717
			h-15.723V381.244z M497.439,398.764h8.086c2.096,0,3.893,0.751,5.391,2.246c1.495,1.499,2.246,3.296,2.246,5.391v52.109h-15.723
			V398.764z"/>
		<path fill="#3A7DC0" d="M550.672,458.51h-15.947l-20.889-59.746h16.621l11.904,42.002l10.557-36.611
			c1.197-3.594,3.594-5.391,7.188-5.391h11.68L550.672,458.51z"/>
		<path fill="#3A7DC0" d="M616.033,440.092h11.23c-1.649,6.289-4.794,11.083-9.434,14.375c-4.643,3.446-10.482,5.166-17.52,5.166
			c-8.535,0-15.199-2.769-19.99-8.311c-4.794-5.391-7.188-13.101-7.188-23.135c0-9.581,2.32-17.07,6.963-22.461
			c4.791-5.538,11.455-8.311,19.99-8.311c8.984,0,15.947,2.695,20.889,8.086c4.791,5.542,7.188,13.252,7.188,23.135
			c0,0.601,0,1.123,0,1.572s0,0.751,0,0.898c0,0.751-0.077,1.274-0.225,1.572H589.08c0.147,4.644,1.271,8.086,3.369,10.332
			c1.944,2.397,4.864,3.594,8.76,3.594c2.545,0,4.717-0.522,6.514-1.572c0.449-0.147,0.859-0.41,1.235-0.786
			c0.372-0.372,0.786-0.786,1.235-1.235c0.147-0.449,0.709-1.046,1.685-1.797C612.85,440.468,614.236,440.092,616.033,440.092z
			 M589.08,422.572h22.91c-0.302-4.043-1.348-7.036-3.145-8.984c-1.947-2.095-4.717-3.145-8.311-3.145
			c-3.295,0-5.99,1.05-8.086,3.145C590.351,415.687,589.228,418.681,589.08,422.572z"/>
		<path fill="#3A7DC0" d="M633.328,436.723l-2.695-47.393c0-2.246,0.786-4.155,2.358-5.728s3.481-2.358,5.728-2.358h7.861
			l-2.695,55.479H633.328z M636.697,443.012h9.658v15.498h-15.498v-9.658C630.857,444.96,632.802,443.012,636.697,443.012z"/>
	</g>
	<g>
		<polygon fill="#BCBCBB" points="360.874,207.228 427.282,245.541 427.282,322.167 360.874,360.479 294.465,322.167 
			294.465,245.541 		"/>
	</g>
	<g>
		<polygon fill="#FDBC61" points="360.874,211.872 423.21,247.863 423.21,319.845 360.874,355.836 298.539,319.845 298.539,247.863 
					"/>
	</g>
	<g>
		<polygon fill="#9FDAF7" points="360.874,211.872 423.21,247.863 423.21,319.845 360.874,355.836 298.539,319.845 298.539,247.863 
			360.874,283.854 		"/>
	</g>
	<g>
		<polygon fill="#EBEFF1" points="360.874,211.872 423.21,247.863 423.21,319.845 360.874,355.836 298.539,319.845 360.874,283.854 
					"/>
	</g>
	<g>
		<polygon fill="#FDF498" points="360.874,211.872 423.21,247.863 423.21,319.845 360.874,355.836 360.874,283.854 		"/>
	</g>
	<g>
		<polygon fill="#C8A1CB" points="360.874,211.872 423.21,247.863 423.21,319.845 360.874,283.854 		"/>
	</g>
	<g>
		<polygon fill="#F7B7CE" points="360.874,211.872 423.21,247.863 360.874,283.854 		"/>
	</g>
	<g>
		<polygon fill="#BCBCBB" points="422.64,125.495 470.008,152.662 470.008,206.996 422.64,234.163 375.271,206.996 375.271,152.662 
					"/>
	</g>
	<g>
		<polygon fill="#BCBCBB" points="482.153,229.519 529.521,256.687 529.521,311.021 482.153,338.188 434.783,311.021 
			434.783,256.687 		"/>
	</g>
	<g>
		<polygon fill="#BCBCBB" points="239.667,229.519 287.035,256.687 287.035,311.021 239.667,338.188 192.298,311.021 
			192.298,256.687 		"/>
	</g>
	<g>
		<polygon fill="#FFFFFF" points="239.667,239.736 278.212,261.795 278.212,305.913 239.667,327.971 201.122,305.913 
			201.122,261.795 		"/>
	</g>
	<g>
		<polygon fill="#FFFFFF" points="482.617,239.736 521.163,261.795 521.163,305.913 482.617,327.971 444.072,305.913 
			444.072,261.795 		"/>
	</g>
	<g>
		<polygon fill="#FFFFFF" points="423.104,135.711 461.648,157.77 461.648,201.887 423.104,223.946 384.559,201.887 384.559,157.77 
					"/>
	</g>
	<g>
		<polygon fill="#BCBCBB" points="299.574,125.495 346.942,152.662 346.942,206.996 299.574,234.163 252.206,206.996 
			252.206,152.662 		"/>
	</g>
	<g>
		<polygon fill="#FFFFFF" points="300.038,135.711 338.583,157.77 338.583,201.887 300.038,223.946 261.493,201.887 261.493,157.77 
					"/>
	</g>
	<g>
		<polygon fill="#FFFFFF" points="360.874,221.16 415.208,252.507 415.208,315.2 360.874,346.547 306.54,315.2 306.54,252.507 		"/>
	</g>
</g>
<g id="Layer_3">
	<g>
		<g>
			<defs>
				<polygon id="SVGID_1_" points="300.038,135.711 338.583,157.77 338.583,201.887 300.038,223.946 261.493,201.887 
					261.493,157.77 				"/>
			</defs>
			<clipPath id="SVGID_2_">
				<use xlink:href="#SVGID_1_"  overflow="visible"/>
			</clipPath>
			<path clip-path="url(#SVGID_2_)" fill="#6F6F70" d="M285.923,151.658c-2.053-0.042-3.875,1.604-4.171,3.856
				c-0.315,2.401,1.222,4.583,3.439,4.875c2.216,0.292,4.273-1.417,4.588-3.818c0.316-2.402-1.229-4.591-3.446-4.883
				C286.196,151.67,286.061,151.662,285.923,151.658z M320.202,155.06c-4.049-0.013-7.869,1.824-11.392,3.665
				c-0.485,0.274-0.966,0.551-1.444,0.836c0.423,0.142,0.854,0.276,1.283,0.403c1.765-0.966,3.6-1.808,5.505-2.5
				c1.864-0.623,3.824-1.099,5.798-0.886c2.017,0.118,3.77,1.694,3.958,3.716c0.416,3.86-1.365,7.555-3.108,10.88
				c-4.84,8.544-11.816,15.854-19.559,21.787c-4.597,3.34-9.65,6.611-15.38,7.631c-2.206,0.382-5.087-0.001-6.069-2.288
				c-1.162-2.887-0.029-6.095,1.041-8.839c1.082-2.454,2.38-4.788,3.849-7.016c-0.032-0.598-0.063-1.191-0.095-1.789
				c-2.998,4.149-5.668,8.629-6.781,13.658c-0.535,2.488-0.378,5.593,1.861,7.207c3.306,2.291,7.496,2.812,11.437,3.063
				c10.2,0.42,20.964-3.047,27.725-10.923c6.213-7.238,8.937-17.062,8.68-26.515c-0.218-3.481-0.56-7.224-2.639-10.146
				c-0.86-1.108-2.211-1.708-3.585-1.884c-0.091-0.012-0.187-0.022-0.278-0.03C320.736,155.071,320.472,155.061,320.202,155.06z
				 M290.806,155.383c0.054,0.577,0.027,1.167-0.08,1.737l21.875,6.854c0.98,0.24,1.385-1.101,0.505-1.605L290.806,155.383z
				 M289.809,159.312c-0.239,0.335-0.514,0.642-0.836,0.909c-0.111,0.109-0.231,0.214-0.351,0.308l17.336,23.459
				c0.699,0.673,1.741-0.235,1.342-0.997L289.809,159.312z M284.553,161.298l1.282,24.229c0.052,1.063,1.79,0.972,1.672-0.088
				l-1.269-24.009C285.676,161.478,285.106,161.434,284.553,161.298z M303.407,162.12c-2.267,1.577-4.443,3.295-6.524,5.117
				c0.196,0.265,0.398,0.533,0.594,0.8c2.245-1.976,4.594-3.864,7.074-5.55C304.17,162.366,303.789,162.239,303.407,162.12z
				 M294.186,169.707c-2.171,2.082-4.23,4.283-6.172,6.576c0.026,0.507,0.054,1.018,0.08,1.524c2.071-2.566,4.334-4.988,6.693-7.287
				C294.586,170.25,294.385,169.978,294.186,169.707z M317.116,197.806c-2.384,2.128-5.105,3.816-8.027,5.065
				c0.354,1.656,1.6,3.097,3.416,3.688c2.729,0.888,5.711-0.476,6.657-3.042C319.957,201.354,319.051,199.019,317.116,197.806z
				 M318.414,207.358c-2.628,1.698-5.807,1.649-8.335,0.168l-6.54,15.879c-1.462,4.157,23.419,3.858,21.281,0.242L318.414,207.358z"
				/>
		</g>
	</g>
	<g>
		<g>
			<defs>
				<polygon id="SVGID_3_" points="423.104,135.711 461.648,157.77 461.648,201.887 423.104,223.946 384.559,201.887 
					384.559,157.77 				"/>
			</defs>
			<clipPath id="SVGID_4_">
				<use xlink:href="#SVGID_3_"  overflow="visible"/>
			</clipPath>
			<path clip-path="url(#SVGID_4_)" fill="#6F6F70" d="M426.115,138.408c-0.185-0.004-0.357,0.075-0.473,0.236l-10.236,14.389
				c-0.087,0.122-0.159,0.24-0.143,0.377c0.546,0.183,1.148,0.409,1.698,0.661l10.19-14.342c0.185-0.258,0.115-0.618-0.143-0.802
				l-0.565-0.424C426.35,138.433,426.226,138.41,426.115,138.408z M392.902,138.644c-0.109,0.008-0.237,0.068-0.33,0.142
				l-0.566,0.424c-0.249,0.196-0.29,0.553-0.094,0.802l10.804,13.823c0.531-0.243,1.129-0.452,1.698-0.613
				c0.032-0.159-0.034-0.334-0.143-0.471l-10.896-13.871C393.252,138.724,393.085,138.63,392.902,138.644z M409.604,153.363
				c-4.055-0.043-8.064,1.138-9.482,3.632c-0.252,0.445-0.329,1.011-0.329,1.462v1.604h19.956v-1.604
				c0.012-0.578-0.145-1.104-0.425-1.51C417.752,154.682,413.657,153.406,409.604,153.363z M378.75,161.808
				c-3.346,0-6.039,2.693-6.039,6.039v41.375c0,3.345,2.693,6.039,6.039,6.039h59.867c3.346,0,6.039-2.693,6.039-6.039v-41.375
				c0-3.346-2.693-6.039-6.039-6.039H378.75z M384.788,171.385h37.554c3.345,0,6.038,2.693,6.038,6.039v22.079
				c0,3.345-2.693,6.039-6.038,6.039h-37.554c-3.347,0-6.038-2.693-6.038-6.039v-22.079
				C378.75,174.078,381.441,171.385,384.788,171.385z M388.326,175.253c-3.021,0-5.473,2.404-5.473,5.426v19.956
				c5.896-9.688,18.412-21.024,39.394-25.381L388.326,175.253L388.326,175.253z M435.786,200.823c2.362,0,4.293,1.884,4.293,4.246
				c0,2.361-1.931,4.293-4.293,4.293c-2.36,0-4.293-1.932-4.293-4.293C431.493,202.708,433.426,200.823,435.786,200.823z"/>
		</g>
	</g>
	<g>
		<g>
			<defs>
				<polygon id="SVGID_5_" points="482.617,239.736 521.163,261.795 521.163,305.913 482.617,327.971 444.072,305.913 
					444.072,261.795 				"/>
			</defs>
			<clipPath id="SVGID_6_">
				<use xlink:href="#SVGID_5_"  overflow="visible"/>
			</clipPath>
			<path clip-path="url(#SVGID_6_)" fill="#6F6F70" d="M493.745,256.682c-0.667,0.014-1.315,0.061-1.989,0.11
				c-21.546,1.606-37.647,21.103-35.975,43.546c1.673,22.443,20.452,39.35,41.998,37.744c21.546-1.607,37.76-21.104,36.086-43.547
				C532.244,272.793,514.443,256.234,493.745,256.682z M491.148,263.59c1.368-0.066,1.584,0.916,0.553,2.21l-4.146,5.084
				c-0.92,1.087-2.048,2.071-4.31,2.763c-6.479,1.805-13.415,7.002-16.91,13.926c-0.642,1.293-1.512,1.324-1.161-0.11
				c2.522-10.655,12.68-21.272,25.312-23.817C490.729,263.589,490.952,263.599,491.148,263.59z M495.569,285.031
				c6.689,0,12.156,5.522,12.156,12.268c0,6.744-5.466,12.213-12.156,12.213c-6.691,0-12.104-5.469-12.104-12.213
				C483.467,290.554,488.878,285.031,495.569,285.031z M495.403,292.159c-2.783,0-5.029,2.278-5.029,5.084
				c0,2.806,2.246,5.084,5.029,5.085c2.782,0,5.084-2.279,5.084-5.085C500.487,294.437,498.188,292.159,495.403,292.159z
				 M526.35,306.029c0.253,0.015,0.354,0.393,0.166,1.104c-2.714,10.609-13.021,21.004-25.695,23.32
				c-1.959,0.41-2.367-0.697-1.161-2.154l4.255-4.975c0.939-1.07,2.036-2.058,4.311-2.707c6.511-1.688,13.514-6.734,17.132-13.595
				C525.688,306.384,526.097,306.016,526.35,306.029z"/>
		</g>
	</g>
	<g>
		<g>
			<defs>
				<polygon id="SVGID_7_" points="239.667,239.736 278.212,261.795 278.212,305.913 239.667,327.971 201.122,305.913 
					201.122,261.795 				"/>
			</defs>
			<clipPath id="SVGID_8_">
				<use xlink:href="#SVGID_7_"  overflow="visible"/>
			</clipPath>
			<path clip-path="url(#SVGID_8_)" fill="#6F6F70" d="M275.722,251.81c-37.442,0.5-37.123,23.519-72.11,25.62v0.32v2.74v2.969
				v2.831v24.387v3.061v3.791v1.143v1.552c35.83-2.331,35.242-23.258,72.11-24.844v-1.689v-1.279v-3.791v-3.151v-24.844v-3.014
				v-3.06v-1.781V251.81z M272.113,254.732v3.105c-0.716,0.057-1.414,0.111-2.101,0.183v-3.105
				C270.69,254.851,271.407,254.784,272.113,254.732z M266.405,255.326v3.151c-0.727,0.111-1.415,0.237-2.101,0.365v-3.151
				C264.992,255.569,265.682,255.431,266.405,255.326z M260.697,256.422v3.197c-0.745,0.188-1.449,0.43-2.146,0.639v-3.243
				C259.253,256.814,259.951,256.603,260.697,256.422z M254.988,258.158v3.288c-0.737,0.286-1.458,0.604-2.146,0.914v-3.38
				C253.541,258.687,254.246,258.431,254.988,258.158z M249.279,260.669v3.471c-0.729,0.403-1.45,0.813-2.146,1.233v-3.562
				C247.825,261.417,248.552,261.041,249.279,260.669z M272.113,260.715v24.752c-7.581,0.292-13.783,1.894-19.271,4.156v-23.702
				C258.12,263.195,264.107,261.158,272.113,260.715z M243.571,264.003v3.608c-0.727,0.486-1.422,0.965-2.147,1.461v-3.653
				C242.129,264.943,242.851,264.468,243.571,264.003z M268.506,264.377c-5.295,0.925-8.509,1.875-12.33,3.691v16.806
				C258.058,276.847,262.717,267.269,268.506,264.377z M237.862,267.839v3.654c-0.7,0.466-1.414,0.954-2.146,1.416v-3.653
				C236.436,268.776,237.158,268.32,237.862,267.839z M249.279,267.885v23.336c-6.9,3.345-12.801,7.589-19.272,11.28v-22.697
				C237.446,276.158,243.041,271.623,249.279,267.885z M232.154,271.539v3.425c-0.676,0.375-1.43,0.729-2.147,1.096v-3.334
				C230.721,272.325,231.476,271.947,232.154,271.539z M245.397,273.457c-4.752,3.522-8.371,5.992-12.239,7.855l-0.046,16.35
				C234.808,288.696,238.671,279.868,245.397,273.457z M226.445,274.598v3.197c-0.693,0.299-1.403,0.583-2.146,0.868v-3.061
				C225.047,275.288,225.74,274.935,226.445,274.598z M220.737,276.973v2.923c-0.696,0.222-1.409,0.429-2.146,0.639v-2.923
				C219.321,277.39,220.046,277.211,220.737,276.973z M215.028,278.571v2.923c-0.694,0.164-1.416,0.304-2.146,0.457v-2.832
				C213.624,278.964,214.323,278.743,215.028,278.571z M209.32,279.759v2.832c-0.699,0.12-1.426,0.249-2.147,0.365v-2.877
				C207.894,279.981,208.625,279.871,209.32,279.759z M226.445,281.403v23.017c-5.562,2.845-11.678,5.129-19.272,5.982v-24.386
				C215.019,285.263,221.187,283.582,226.445,281.403z M223.294,285.513c-5.269,2.349-8.451,3.107-12.741,3.562v16.806
				C212.249,296.917,215.815,290.141,223.294,285.513z M272.113,288.755v3.836c-0.707,0.047-1.423,0.079-2.101,0.137v-3.836
				C270.702,288.828,271.406,288.798,272.113,288.755z M266.405,289.35v3.745c-0.727,0.1-1.409,0.2-2.101,0.319v-3.699
				C264.993,289.579,265.693,289.461,266.405,289.35z M260.697,290.583v3.607c-0.729,0.175-1.456,0.352-2.146,0.548v-3.563
				C259.248,290.958,259.973,290.777,260.697,290.583z M254.988,292.409v3.471c-0.731,0.268-1.451,0.529-2.146,0.822v-3.425
				C253.544,292.969,254.26,292.691,254.988,292.409z M249.279,295.012v3.38c-0.731,0.373-1.446,0.751-2.146,1.142v-3.425
				C247.831,295.733,248.566,295.375,249.279,295.012z M243.571,298.118v3.516c-0.721,0.449-1.436,0.912-2.147,1.37v-3.607
				C242.132,298.967,242.852,298.539,243.571,298.118z M237.862,301.588v3.7c-0.708,0.459-1.422,0.913-2.146,1.369v-3.745
				C236.434,302.472,237.145,302.033,237.862,301.588z M232.154,305.013v3.791c-0.691,0.399-1.428,0.798-2.147,1.188v-3.79
				C230.724,305.802,231.447,305.427,232.154,305.013z M226.445,308.119v3.699c-0.697,0.321-1.407,0.609-2.146,0.913v-3.608
				C225.026,308.796,225.737,308.469,226.445,308.119z M220.737,310.631v3.424c-0.692,0.235-1.417,0.422-2.146,0.641v-3.334
				C219.318,311.127,220.032,310.892,220.737,310.631z M215.028,312.32v3.334c-0.702,0.169-1.408,0.35-2.146,0.503v-3.38
				C213.605,312.637,214.329,312.489,215.028,312.32z M209.32,313.371v3.425c-0.696,0.11-1.425,0.22-2.147,0.319V313.6
				C207.898,313.543,208.619,313.454,209.32,313.371z"/>
		</g>
	</g>
	<g>
		<path fill="none" d="M315.679,303.653c0-24.63,0-49.26-0.005-73.89c0-0.199,0.045-0.244,0.244-0.244
			c29.971,0.005,59.941,0.005,89.912,0c0.199,0,0.244,0.044,0.244,0.244c-0.005,33.796-0.005,67.593,0,101.39
			c0,0.198-0.044,0.244-0.243,0.244c-29.972-0.006-59.942-0.006-89.913,0c-0.199,0-0.245-0.045-0.244-0.244
			c0.006-8.849,0.005-17.696,0.005-26.543c0.1,0.063,0.055,0.163,0.049,0.241c-0.025,0.31,0.022,0.62,0.07,0.918
			c0.152,0.949,0.382,1.878,0.722,2.783c0.542,1.443,1.311,2.752,2.225,3.983c0.349,0.47,0.73,0.914,1.119,1.352
			c0.481,0.543,0.998,1.05,1.526,1.544c0.48,0.45,0.991,0.869,1.525,1.28c-0.659-0.047-1.259,0.147-1.848,0.388
			c-0.408,0.167-0.815,0.323-1.181,0.589c-0.608,0.441-0.813,1.063-0.856,1.762c-0.045,0.729,0.041,1.463-0.052,2.194
			c-0.144,1.124-0.544,2.109-1.429,2.857c-0.107,0.09-0.17,0.15,0.015,0.264c0.76,0.47,1.519,0.45,2.305,0.073
			c0.713-0.341,1.384-0.752,2.062-1.182c-0.637,1.707-1.61,3.167-3.093,4.254c1.028,0.298,2.098,0.373,3.167,0.384
			c0.431,0.004,0.873-0.032,1.309-0.082c0.667-0.077,1.315-0.219,1.964-0.379c1.6-0.394,2.538-1.455,3.043-2.965
			c0.098-0.293,0.182-0.592,0.277-0.906c0.066,0.077,0.103,0.128,0.102,0.203c0,0.069,0.004,0.142,0.024,0.208
			c0.19,0.651,0.729,0.94,1.279,1.211c0.099,0.049,0.161-0.013,0.183-0.122c0.259-1.267,0.801-2.41,1.515-3.479
			c0.533-0.8,0.732-1.683,0.603-2.627c-0.057-0.419-0.169-0.831-0.367-1.213c-0.043-0.084-0.121-0.161,0.061-0.199
			c1.301-0.272,2.377-0.926,3.27-1.909c0.551-0.608,0.977-1.294,1.275-2.046c0.668-1.687,0.88-3.443,0.773-5.252
			c-0.052-0.878-0.243-1.722-0.526-2.54c-0.396-1.145-0.859-2.264-1.264-3.405c-0.42-1.185-0.779-2.387-0.882-3.654
			c-0.077-0.949-0.067-1.888,0.106-2.827c0.151-0.822,0.409-1.608,0.722-2.379c0.301-0.739,0.707-1.417,1.256-1.995
			c0.603-0.634,1.33-1.092,2.166-1.354c0.973-0.306,1.963-0.424,2.991-0.334c0.697,0.061,1.392,0.132,2.066,0.292
			c1.554,0.369,3.051,0.911,4.479,1.634c0.155,0.079,0.165,0.192,0.136,0.32c-0.112,0.489-0.132,0.989-0.143,1.483
			c-0.016,0.687-0.027,1.374,0.033,2.063c0.057,0.652,0.12,1.304,0.24,1.945c0.197,1.055,0.513,2.08,0.88,3.091
			c0.465,1.279,0.998,2.529,1.583,3.756c0.422,0.884,0.861,1.759,1.35,2.62c-0.045,0.012-0.068,0.022-0.092,0.023
			c-0.624,0.011-1.228,0.109-1.795,0.383c-0.102,0.049-0.174,0.098-0.199,0.241c-0.138,0.793-0.307,1.581-0.452,2.374
			c-0.122,0.666-0.23,1.334-0.336,2.002c-0.083,0.523-0.155,1.049-0.231,1.573c-0.083,0.576-0.185,1.15-0.243,1.729
			c-0.055,0.556-0.118,1.111-0.179,1.667c-0.089,0.809-0.163,1.621-0.186,2.431c-0.037,1.292-0.057,2.586,0.138,3.875
			c0.101,0.67,0.195,1.34,0.353,1.999c0.343,1.428,0.834,2.802,1.511,4.111c0.22,0.427,0.535,0.73,0.945,0.937
			c0.802,0.401,1.679,0.504,2.557,0.533c1.072,0.034,2.142-0.042,3.21-0.146c0.521-0.051,1.038-0.11,1.549-0.219
			c0.448-0.094,0.888-0.176,1.352-0.056c0.987,0.256,2.008,0.384,3.021,0.408c1.219,0.028,2.448,0.147,3.659-0.141
			c0.756-0.18,1.468-0.453,2.121-0.887c0.231-0.153,0.159-0.277,0.062-0.433c-0.569-0.904-1.067-1.847-1.521-2.815
			c-0.691-1.478-1.253-3-1.672-4.578c-0.286-1.075-0.479-2.167-0.61-3.271c-0.086-0.718-0.063-1.439-0.094-2.159
			c-0.05-1.188-0.007-2.377,0.084-3.566c0.058-0.749,0.138-1.493,0.274-2.229c0.201-1.068,0.488-2.114,0.994-3.078
			c1.041-1.986,1.879-4.038,2.205-6.274c0.022-0.149,0.012-0.342,0.24-0.419c0.311-0.104,0.609-0.247,0.906-0.39
			c0.992-0.481,1.963-1.006,2.929-1.541c0.767-0.424,1.464-0.941,2.106-1.528c0.625-0.568,1.158-1.218,1.572-1.953
			c0.119-0.207,0.184-0.18,0.371-0.092c0.512,0.24,1.061,0.356,1.627,0.417c0.637,0.069,1.278,0.087,1.902,0.022
			c1.02-0.107,1.968-0.468,2.783-1.118c0.083-0.066,0.15-0.076,0.24,0.013c0.221,0.217,0.418,0.451,0.611,0.689
			c0.428,0.527,0.674,1.153,0.951,1.758c0.289,0.628,0.549,1.27,0.703,1.95c0.091,0.402,0.115,0.825,0.342,1.19
			c0.564,0.913,1.337,1.624,2.209,2.229c0.963,0.667,2.018,1.144,3.143,1.47c1.076,0.313,2.181,0.442,3.295,0.494
			c0.351,0.016,0.701-0.017,1.053-0.038c0.667-0.04,1.314-0.144,1.934-0.386c0.976-0.383,1.427-1.039,1.515-1.968
			c0.058-0.607-0.075-1.197-0.252-1.776c-0.387-1.265-0.971-2.448-1.531-3.636c-0.526-1.112-1.261-2.075-2.188-2.901
			c-0.757-0.675-1.551-1.296-2.373-1.885c-1.018-0.727-2.047-1.434-3.146-2.029c-1.443-0.783-2.95-1.419-4.532-1.879
			c-1.381-0.402-2.78-0.679-4.226-0.78c0.095-0.377,0.185-0.752,0.201-1.146c0.009-0.156-0.01-0.357,0.172-0.499
			c1.048-0.819,2.132-1.587,3.216-2.355c1.366-0.969,2.733-1.937,4.065-2.956c0.15-0.116,0.243-0.135,0.396,0.023
			c0.644,0.668,1.319,1.303,1.935,1.999c0.416,0.471,0.84,0.935,1.202,1.45c0.618,0.877,1.396,1.569,2.374,2.023
			c1.254,0.581,2.593,0.763,3.953,0.831c0.553,0.028,1.104-0.02,1.652-0.097c0.805-0.113,1.574-0.333,2.313-0.664
			c1.12-0.503,2.084-1.223,2.896-2.145c0.323-0.368,0.555-0.769,0.525-1.292c-0.029-0.537-0.276-0.986-0.553-1.414
			c-0.751-1.167-1.686-2.18-2.692-3.132c-0.774-0.731-1.666-1.287-2.603-1.769c-1.196-0.615-2.458-1.076-3.755-1.427
			c-0.835-0.226-1.678-0.427-2.528-0.588c-0.759-0.144-1.526-0.244-2.295-0.341c-0.702-0.088-1.409-0.179-2.11-0.187
			c-1.25-0.014-2.504-0.102-3.752,0.088c-0.578,0.088-1.146,0.195-1.67,0.463c-0.674,0.347-1.236,0.827-1.736,1.404
			c-0.637,0.737-1.187,1.521-1.541,2.43c-0.039,0.1-0.061,0.096-0.131,0.061c-0.348-0.177-0.722-0.225-1.103-0.275
			c-0.153-0.02-0.37,0.046-0.478-0.175c-0.188-0.392-0.389-0.776-0.592-1.161c-0.416-0.792-0.854-1.571-1.306-2.342
			c-0.469-0.799-1.017-1.554-1.353-2.43c-0.426-1.115-0.623-2.264-0.58-3.456c0.004-0.117,0.043-0.16,0.154-0.148
			c0.174,0.019,0.35,0.061,0.521,0.049c0.854-0.059,1.701,0.125,2.558,0.011c0.452-0.06,0.913-0.016,1.372-0.046
			c0.698-0.047,1.395-0.092,2.08-0.23c1.171-0.237,2.208-0.732,3.02-1.643c0.088-0.101,0.101-0.176-0.002-0.267
			c-0.133-0.118-0.22-0.271-0.295-0.429c-0.365-0.767-0.492-1.596-0.521-2.428c-0.041-1.191-0.046-2.386,0.054-3.575
			c0.029-0.346-0.009-0.702,0.094-1.043c0.018-0.06,0.006-0.134,0.096-0.122c0.119,0.016,0.223-0.043,0.335-0.056
			c1.342-0.145,2.284-0.872,2.917-2.028c0.346-0.631,0.509-1.319,0.603-2.032c0.091-0.689,0.151-1.375-0.022-2.056
			c-0.129-0.5-0.574-0.949-1.155-0.911c-0.349,0.023-0.673,0.115-1.013,0.199c-0.004-0.589-0.104-1.149-0.232-1.698
			c-0.352-1.471-0.906-2.871-1.561-4.23c-0.534-1.116-1.135-2.2-2.051-3.065c-0.115-0.108-0.037-0.14,0.049-0.166
			c0.205-0.063,0.418-0.108,0.621-0.179c1.324-0.458,2.586-1.056,3.826-1.699c0.424-0.22,0.834-0.469,1.187-0.799
			c0.585-0.55,1.028-1.204,1.399-1.911c0.493-0.94,0.834-1.94,1.106-2.962c0.16-0.602,0.288-1.214,0.375-1.863
			c-0.401,0.301-0.771,0.59-1.153,0.861c-1.3,0.923-2.654,1.745-4.234,2.094c-0.703,0.155-1.424,0.146-2.106-0.098
			c-1.211-0.432-2.146-1.231-2.894-2.267c-0.15-0.209-0.103-0.3,0.074-0.435c0.685-0.519,1.469-0.373,2.229-0.341
			c0.188,0.008,0.374,0.014,0.573,0.022c-0.02-0.046-0.021-0.066-0.031-0.076c-0.778-0.643-1.612-1.204-2.505-1.678
			c-1.276-0.678-2.61-1.2-4.025-1.512c-0.817-0.181-1.64-0.32-2.478-0.343c-0.523-0.014-1.049,0.004-1.571-0.005
			c-0.458-0.007-0.913,0.049-1.358,0.12c-1.121,0.177-2.221,0.443-3.291,0.835c-1.356,0.499-2.642,1.141-3.863,1.91
			c-1.396,0.879-2.676,1.904-3.811,3.109c-0.522,0.556-1.016,1.133-1.485,1.733c-0.631,0.807-1.219,1.646-1.743,2.527
			c-0.08,0.135-0.107,0.097-0.201,0.036c-0.334-0.217-0.671-0.432-0.984-0.68c-0.961-0.764-2.051-1.253-3.248-1.505
			c-0.175-0.037-0.335,0.008-0.485,0.137c-0.388,0.333-0.605,0.769-0.782,1.232c-0.488,1.273-0.562,2.615-0.63,3.953
			c-0.044,0.869,0.03,1.735,0.149,2.599c0.113,0.817,0.292,1.618,0.523,2.409c0.404,1.381,0.98,2.688,1.711,3.924
			c0.154,0.261,0.154,0.46,0.069,0.746c-0.25,0.844-0.215,1.729-0.274,2.599c-0.065,0.97,0.048,1.94,0.062,2.912
			c0.005,0.375,0.015,0.755,0.042,1.132c0.064,0.898,0.146,1.796,0.207,2.695c0.051,0.754,0.074,1.51,0.096,2.264
			c0.025,0.854,0.031,1.71-0.026,2.568c-0.05,0.743-0.085,1.485-0.169,2.226c-0.073,0.64-0.176,1.275-0.298,1.905
			c-0.153,0.785-0.21,1.58-0.208,2.369c0.001,0.447,0.015,0.907,0.061,1.361c0.066,0.651,0.133,1.3,0.286,1.935
			c0.286,1.19,0.786,2.259,1.765,3.055c0.784,0.638,1.696,0.943,2.683,1.007c0.655,0.042,1.314,0.028,1.972-0.087
			c0.763-0.135,1.509-0.312,2.229-0.596c0.178-0.07,0.23-0.057,0.227,0.145c-0.011,0.402-0.004,0.803,0.078,1.204
			c0.182,0.876,0.602,1.599,1.361,2.209c-1.334,0.025-2.512-0.392-3.738-0.678c0.115,0.323,0.222,0.621,0.331,0.929
			c-0.456,0.064-0.894,0.013-1.333,0.059c-0.884,0.093-1.764,0.202-2.645,0.327c-1.546,0.22-2.829,0.961-3.97,1.979
			c-0.456,0.407-0.883,0.847-1.23,1.404c-0.131-0.261-0.23-0.494-0.359-0.708c-0.769-1.281-1.603-2.518-2.549-3.678
			c-0.874-1.072-1.734-2.149-2.761-3.087c-0.848-0.774-1.762-1.449-2.755-2.013c-1.804-1.025-3.759-1.568-5.822-1.695
			c-1.098-0.067-2.201-0.012-3.288,0.162c-1.085,0.173-2.154,0.43-3.198,0.783c-1.724,0.582-3.352,1.361-4.929,2.27
			c-1.394,0.804-2.625,1.782-3.674,3.001c-0.827,0.961-1.504,2.019-2.087,3.138c-0.675,1.293-1.203,2.647-1.631,4.042
			c-0.326,1.06-0.596,2.132-0.819,3.217c-0.143,0.697-0.271,1.396-0.383,2.098c-0.108,0.678-0.21,1.356-0.296,2.037
			c-0.075,0.597-0.124,1.199-0.178,1.8c-0.083,0.933-0.147,1.867-0.202,2.802c-0.034,0.581-0.072,1.161-0.053,1.743
			C315.733,303.589,315.733,303.635,315.679,303.653z"/>
		<path fill="#454545" d="M315.679,303.653c0.054-0.018,0.054-0.064,0.052-0.108c-0.019-0.582,0.02-1.163,0.053-1.743
			c0.055-0.935,0.119-1.869,0.202-2.802c0.054-0.601,0.103-1.203,0.178-1.8c0.085-0.68,0.188-1.359,0.296-2.037
			c0.112-0.703,0.24-1.401,0.383-2.098c0.223-1.085,0.493-2.158,0.819-3.217c0.429-1.394,0.957-2.748,1.631-4.042
			c0.583-1.119,1.261-2.177,2.087-3.138c1.049-1.219,2.281-2.198,3.674-3.001c1.577-0.909,3.205-1.688,4.929-2.27
			c1.044-0.353,2.113-0.61,3.198-0.783c1.087-0.173,2.19-0.229,3.288-0.162c2.063,0.127,4.018,0.67,5.822,1.695
			c0.993,0.564,1.907,1.239,2.755,2.013c1.027,0.938,1.888,2.016,2.761,3.087c0.946,1.161,1.78,2.397,2.549,3.678
			c0.129,0.214,0.228,0.447,0.359,0.708c0.347-0.557,0.774-0.997,1.23-1.404c1.141-1.018,2.423-1.759,3.97-1.979
			c0.88-0.125,1.761-0.234,2.645-0.327c0.439-0.046,0.877,0.006,1.333-0.059c-0.109-0.308-0.216-0.605-0.331-0.929
			c1.227,0.286,2.404,0.703,3.738,0.678c-0.761-0.61-1.181-1.333-1.36-2.209c-0.082-0.401-0.09-0.802-0.08-1.204
			c0.006-0.202-0.049-0.215-0.226-0.145c-0.72,0.284-1.466,0.461-2.229,0.596c-0.657,0.115-1.317,0.129-1.972,0.087
			c-0.987-0.063-1.899-0.369-2.683-1.007c-0.979-0.796-1.479-1.865-1.765-3.055c-0.152-0.635-0.22-1.283-0.286-1.935
			c-0.046-0.455-0.06-0.914-0.061-1.361c-0.002-0.789,0.055-1.584,0.208-2.369c0.123-0.63,0.225-1.265,0.298-1.905
			c0.084-0.741,0.12-1.483,0.169-2.226c0.057-0.858,0.051-1.714,0.026-2.568c-0.022-0.754-0.045-1.51-0.096-2.264
			c-0.061-0.899-0.143-1.797-0.207-2.695c-0.027-0.377-0.037-0.757-0.042-1.132c-0.014-0.971-0.127-1.942-0.062-2.912
			c0.059-0.87,0.024-1.755,0.274-2.599c0.084-0.285,0.085-0.484-0.069-0.746c-0.73-1.236-1.307-2.543-1.711-3.924
			c-0.232-0.792-0.41-1.592-0.523-2.409c-0.119-0.863-0.193-1.73-0.149-2.599c0.068-1.338,0.142-2.68,0.63-3.953
			c0.177-0.463,0.394-0.898,0.782-1.232c0.15-0.129,0.31-0.174,0.485-0.137c1.197,0.252,2.287,0.741,3.248,1.505
			c0.313,0.249,0.649,0.463,0.984,0.68c0.094,0.061,0.121,0.1,0.201-0.036c0.524-0.881,1.111-1.72,1.743-2.527
			c0.47-0.6,0.963-1.177,1.485-1.733c1.135-1.206,2.415-2.23,3.811-3.109c1.222-0.77,2.506-1.411,3.863-1.91
			c1.07-0.393,2.17-0.659,3.289-0.835c0.447-0.071,0.901-0.127,1.359-0.12c0.523,0.009,1.049-0.009,1.571,0.005
			c0.838,0.023,1.66,0.163,2.478,0.343c1.416,0.313,2.75,0.834,4.025,1.512c0.893,0.474,1.727,1.035,2.505,1.678
			c0.013,0.009,0.013,0.03,0.032,0.076c-0.2-0.008-0.385-0.014-0.574-0.022c-0.762-0.031-1.546-0.178-2.229,0.341
			c-0.178,0.135-0.227,0.226-0.074,0.435c0.748,1.036,1.682,1.835,2.893,2.267c0.684,0.244,1.403,0.253,2.106,0.098
			c1.581-0.349,2.937-1.17,4.235-2.094c0.381-0.271,0.75-0.56,1.152-0.861c-0.087,0.649-0.215,1.261-0.375,1.863
			c-0.271,1.022-0.613,2.022-1.105,2.962c-0.371,0.707-0.815,1.361-1.4,1.911c-0.352,0.33-0.762,0.579-1.186,0.799
			c-1.241,0.643-2.504,1.241-3.826,1.699c-0.203,0.07-0.416,0.115-0.622,0.179c-0.085,0.026-0.163,0.058-0.05,0.166
			c0.916,0.865,1.518,1.949,2.053,3.065c0.652,1.359,1.209,2.759,1.561,4.23c0.129,0.549,0.229,1.108,0.232,1.698
			c0.339-0.084,0.664-0.176,1.012-0.199c0.581-0.038,1.027,0.411,1.155,0.911c0.175,0.681,0.112,1.366,0.022,2.056
			c-0.094,0.713-0.256,1.401-0.603,2.032c-0.632,1.157-1.575,1.883-2.917,2.028c-0.111,0.013-0.216,0.071-0.335,0.056
			c-0.09-0.012-0.078,0.062-0.097,0.122c-0.102,0.341-0.063,0.697-0.092,1.043c-0.101,1.189-0.096,2.384-0.055,3.575
			c0.028,0.832,0.155,1.661,0.521,2.428c0.074,0.158,0.16,0.311,0.293,0.429c0.104,0.091,0.092,0.166,0.003,0.267
			c-0.812,0.91-1.849,1.406-3.019,1.643c-0.687,0.138-1.383,0.183-2.08,0.23c-0.459,0.031-0.92-0.014-1.373,0.046
			c-0.854,0.113-1.705-0.07-2.558-0.011c-0.172,0.012-0.347-0.03-0.521-0.049c-0.112-0.012-0.151,0.031-0.155,0.148
			c-0.042,1.192,0.153,2.341,0.581,3.456c0.336,0.875,0.883,1.631,1.352,2.43c0.452,0.771,0.891,1.551,1.307,2.342
			c0.203,0.384,0.403,0.769,0.592,1.161c0.105,0.222,0.322,0.155,0.477,0.175c0.381,0.05,0.756,0.099,1.104,0.275
			c0.07,0.036,0.091,0.04,0.13-0.061c0.354-0.909,0.903-1.693,1.542-2.43c0.499-0.577,1.063-1.058,1.736-1.404
			c0.521-0.268,1.092-0.375,1.668-0.463c1.248-0.189,2.502-0.102,3.752-0.088c0.703,0.007,1.41,0.098,2.111,0.187
			c0.77,0.097,1.536,0.198,2.295,0.341c0.852,0.161,1.693,0.362,2.528,0.588c1.297,0.351,2.559,0.812,3.755,1.427
			c0.938,0.481,1.827,1.038,2.604,1.769c1.007,0.952,1.94,1.965,2.691,3.132c0.275,0.428,0.522,0.877,0.553,1.414
			c0.028,0.522-0.201,0.924-0.525,1.292c-0.812,0.922-1.774,1.642-2.896,2.145c-0.736,0.331-1.508,0.551-2.313,0.664
			c-0.55,0.077-1.101,0.125-1.652,0.097c-1.359-0.068-2.698-0.25-3.952-0.831c-0.979-0.455-1.757-1.146-2.375-2.023
			c-0.361-0.516-0.787-0.979-1.203-1.45c-0.613-0.696-1.291-1.331-1.934-1.999c-0.152-0.158-0.245-0.14-0.396-0.023
			c-1.33,1.019-2.697,1.986-4.064,2.956c-1.084,0.768-2.168,1.536-3.216,2.355c-0.181,0.142-0.163,0.343-0.171,0.499
			c-0.018,0.394-0.107,0.769-0.202,1.146c1.444,0.102,2.845,0.378,4.226,0.78c1.582,0.46,3.088,1.096,4.532,1.879
			c1.101,0.595,2.129,1.302,3.146,2.029c0.824,0.589,1.617,1.209,2.375,1.885c0.927,0.826,1.66,1.79,2.188,2.901
			c0.563,1.188,1.146,2.372,1.531,3.636c0.177,0.58,0.31,1.169,0.252,1.776c-0.088,0.93-0.539,1.585-1.514,1.968
			c-0.619,0.243-1.268,0.346-1.935,0.386c-0.351,0.021-0.702,0.054-1.053,0.038c-1.114-0.052-2.22-0.181-3.295-0.494
			c-1.125-0.327-2.181-0.803-3.142-1.47c-0.873-0.605-1.645-1.316-2.209-2.229c-0.228-0.365-0.252-0.788-0.343-1.19
			c-0.153-0.68-0.414-1.322-0.703-1.95c-0.278-0.605-0.524-1.231-0.95-1.758c-0.193-0.239-0.393-0.472-0.611-0.689
			c-0.092-0.089-0.158-0.079-0.241-0.013c-0.815,0.65-1.765,1.011-2.783,1.118c-0.624,0.065-1.266,0.047-1.901-0.022
			c-0.567-0.062-1.115-0.178-1.629-0.417c-0.188-0.088-0.252-0.115-0.369,0.092c-0.416,0.735-0.948,1.384-1.572,1.953
			c-0.645,0.587-1.342,1.104-2.107,1.528c-0.966,0.534-1.936,1.06-2.929,1.541c-0.297,0.143-0.596,0.286-0.905,0.39
			c-0.229,0.077-0.219,0.27-0.24,0.419c-0.326,2.236-1.166,4.289-2.207,6.274c-0.504,0.964-0.793,2.011-0.992,3.078
			c-0.139,0.737-0.219,1.48-0.275,2.229c-0.091,1.188-0.134,2.378-0.084,3.565c0.03,0.719,0.008,1.442,0.094,2.159
			c0.133,1.104,0.324,2.195,0.61,3.271c0.419,1.577,0.979,3.1,1.672,4.577c0.453,0.97,0.951,1.911,1.521,2.815
			c0.1,0.156,0.172,0.28-0.061,0.433c-0.652,0.435-1.365,0.707-2.121,0.888c-1.211,0.288-2.441,0.169-3.658,0.14
			c-1.014-0.023-2.033-0.152-3.021-0.408c-0.464-0.12-0.903-0.038-1.352,0.057c-0.511,0.106-1.028,0.168-1.549,0.219
			c-1.068,0.104-2.139,0.18-3.21,0.146c-0.878-0.027-1.755-0.132-2.557-0.532c-0.411-0.206-0.726-0.511-0.945-0.938
			c-0.676-1.309-1.168-2.683-1.511-4.111c-0.157-0.657-0.251-1.328-0.353-1.999c-0.195-1.288-0.175-2.583-0.138-3.875
			c0.023-0.81,0.097-1.621,0.186-2.431c0.061-0.555,0.124-1.109,0.179-1.667c0.058-0.579,0.16-1.153,0.243-1.729
			c0.076-0.525,0.148-1.051,0.231-1.573c0.106-0.668,0.214-1.337,0.336-2.002c0.145-0.792,0.314-1.58,0.452-2.374
			c0.025-0.145,0.097-0.193,0.199-0.242c0.567-0.273,1.171-0.373,1.795-0.382c0.023,0,0.047-0.012,0.092-0.024
			c-0.489-0.86-0.928-1.736-1.35-2.62c-0.585-1.227-1.119-2.477-1.583-3.756c-0.367-1.011-0.683-2.036-0.88-3.091
			c-0.12-0.641-0.183-1.293-0.24-1.945c-0.06-0.689-0.049-1.376-0.033-2.063c0.011-0.494,0.031-0.994,0.143-1.483
			c0.029-0.128,0.02-0.242-0.136-0.32c-1.428-0.723-2.925-1.265-4.479-1.634c-0.675-0.16-1.37-0.231-2.066-0.292
			c-1.027-0.09-2.018,0.028-2.991,0.334c-0.836,0.263-1.563,0.72-2.166,1.354c-0.55,0.579-0.956,1.256-1.256,1.995
			c-0.313,0.771-0.571,1.557-0.722,2.379c-0.173,0.939-0.183,1.878-0.106,2.827c0.103,1.267,0.462,2.469,0.882,3.654
			c0.404,1.141,0.868,2.261,1.264,3.405c0.283,0.819,0.475,1.662,0.526,2.54c0.107,1.81-0.104,3.567-0.773,5.252
			c-0.298,0.752-0.724,1.438-1.275,2.046c-0.893,0.984-1.969,1.638-3.27,1.909c-0.182,0.038-0.104,0.115-0.061,0.2
			c0.197,0.381,0.31,0.794,0.367,1.212c0.129,0.946-0.069,1.829-0.603,2.627c-0.714,1.069-1.256,2.213-1.515,3.479
			c-0.022,0.108-0.084,0.17-0.183,0.122c-0.55-0.271-1.089-0.561-1.279-1.212c-0.02-0.065-0.024-0.138-0.024-0.208
			c0-0.074-0.036-0.126-0.102-0.202c-0.095,0.313-0.179,0.611-0.277,0.905c-0.505,1.511-1.443,2.571-3.043,2.965
			c-0.649,0.16-1.298,0.303-1.964,0.38c-0.436,0.05-0.878,0.086-1.309,0.082c-1.069-0.012-2.139-0.087-3.167-0.385
			c1.483-1.087,2.456-2.547,3.093-4.254c-0.678,0.431-1.349,0.84-2.062,1.183c-0.786,0.376-1.544,0.396-2.305-0.073
			c-0.185-0.114-0.122-0.173-0.015-0.265c0.885-0.747,1.286-1.732,1.429-2.856c0.093-0.732,0.007-1.465,0.052-2.195
			c0.043-0.698,0.248-1.318,0.856-1.762c0.366-0.266,0.773-0.422,1.181-0.588c0.589-0.24,1.189-0.436,1.848-0.388
			c-0.534-0.411-1.044-0.83-1.525-1.28c-0.528-0.494-1.044-1.001-1.526-1.544c-0.389-0.438-0.771-0.882-1.119-1.353
			c-0.914-1.23-1.683-2.541-2.225-3.982c-0.34-0.905-0.57-1.834-0.722-2.783c-0.048-0.298-0.095-0.608-0.07-0.918
			c0.006-0.078,0.05-0.178-0.049-0.241C315.679,304.291,315.679,303.972,315.679,303.653z"/>
	</g>
</g>
</svg>
