<?xml version="1.0" encoding="utf-8"?>
<!-- Generator: Adobe Illustrator 16.0.0, SVG Export Plug-In . SVG Version: 6.00 Build 0)  -->
<!DOCTYPE svg PUBLIC "-//W3C//DTD SVG 1.1//EN" "http://www.w3.org/Graphics/SVG/1.1/DTD/svg11.dtd">
<svg version="1.1" id="Layer_1" xmlns="http://www.w3.org/2000/svg" xmlns:xlink="http://www.w3.org/1999/xlink" x="0px" y="0px"
	 width="294.861px" height="103.818px" viewBox="0 0 294.861 103.818" enable-background="new 0 0 294.861 103.818"
	 xml:space="preserve">
<g>
	<polygon fill="#BBBBBB" points="72.195,10.293 110.273,32.261 110.273,76.197 72.195,98.165 34.117,76.197 34.117,32.261 	"/>
</g>
<path fill="#454545" d="M20,74.028c0.055-0.018,0.055-0.063,0.053-0.107c-0.02-0.582,0.02-1.163,0.053-1.743
	c0.055-0.935,0.119-1.868,0.202-2.802c0.054-0.602,0.103-1.203,0.178-1.8c0.085-0.681,0.188-1.359,0.296-2.037
	c0.112-0.703,0.24-1.401,0.383-2.099c0.224-1.084,0.493-2.157,0.819-3.217c0.429-1.394,0.957-2.748,1.631-4.041
	c0.583-1.119,1.261-2.178,2.087-3.139c1.049-1.219,2.281-2.197,3.674-3.001c1.577-0.909,3.205-1.688,4.93-2.271
	c1.044-0.353,2.112-0.609,3.197-0.782c1.087-0.173,2.19-0.229,3.288-0.162c2.063,0.127,4.019,0.67,5.822,1.694
	c0.993,0.564,1.907,1.24,2.755,2.014c1.027,0.938,1.888,2.016,2.761,3.087c0.946,1.161,1.78,2.397,2.55,3.679
	c0.129,0.213,0.228,0.446,0.358,0.707c0.347-0.557,0.774-0.996,1.23-1.404c1.141-1.018,2.423-1.758,3.97-1.979
	c0.88-0.125,1.761-0.234,2.645-0.327c0.439-0.046,0.878,0.007,1.333-0.059c-0.108-0.308-0.216-0.604-0.33-0.929
	c1.227,0.285,2.403,0.703,3.737,0.678c-0.761-0.61-1.181-1.333-1.36-2.209c-0.082-0.401-0.09-0.803-0.079-1.204
	c0.005-0.202-0.05-0.215-0.227-0.146c-0.72,0.284-1.466,0.461-2.229,0.597c-0.657,0.114-1.317,0.129-1.973,0.087
	c-0.986-0.063-1.898-0.369-2.683-1.008c-0.979-0.795-1.479-1.864-1.765-3.055c-0.152-0.635-0.221-1.283-0.286-1.935
	c-0.046-0.455-0.061-0.914-0.062-1.36c-0.002-0.789,0.056-1.585,0.208-2.369c0.123-0.631,0.226-1.266,0.298-1.906
	c0.084-0.74,0.12-1.482,0.169-2.225c0.058-0.859,0.052-1.715,0.026-2.568c-0.021-0.754-0.045-1.51-0.096-2.264
	c-0.062-0.899-0.144-1.798-0.207-2.695c-0.027-0.377-0.037-0.758-0.042-1.133c-0.014-0.971-0.127-1.941-0.063-2.912
	c0.06-0.869,0.024-1.754,0.274-2.599c0.084-0.284,0.085-0.483-0.069-0.745c-0.729-1.236-1.307-2.543-1.711-3.925
	c-0.231-0.792-0.41-1.592-0.522-2.409c-0.119-0.863-0.193-1.729-0.149-2.599c0.068-1.338,0.142-2.681,0.63-3.953
	c0.177-0.463,0.395-0.897,0.782-1.231c0.15-0.129,0.31-0.174,0.485-0.138c1.196,0.253,2.286,0.741,3.248,1.505
	c0.313,0.25,0.648,0.463,0.983,0.68c0.094,0.062,0.121,0.101,0.201-0.035c0.524-0.881,1.111-1.721,1.743-2.527
	c0.47-0.6,0.963-1.177,1.484-1.732c1.136-1.207,2.414-2.23,3.812-3.109c1.222-0.77,2.506-1.411,3.863-1.91
	c1.069-0.393,2.17-0.658,3.29-0.835c0.445-0.071,0.9-0.127,1.358-0.12c0.523,0.01,1.048-0.009,1.571,0.006
	c0.838,0.022,1.66,0.162,2.478,0.342c1.415,0.313,2.749,0.834,4.025,1.513c0.893,0.474,1.727,1.034,2.505,1.678
	c0.012,0.009,0.013,0.03,0.032,0.076c-0.2-0.009-0.385-0.015-0.574-0.022c-0.762-0.031-1.546-0.178-2.229,0.342
	c-0.178,0.135-0.227,0.226-0.074,0.435c0.748,1.036,1.682,1.835,2.893,2.267c0.684,0.244,1.403,0.254,2.106,0.099
	c1.581-0.349,2.936-1.171,4.234-2.095c0.383-0.271,0.751-0.56,1.153-0.86c-0.087,0.649-0.215,1.261-0.375,1.862
	c-0.271,1.022-0.613,2.022-1.105,2.963c-0.371,0.707-0.815,1.361-1.4,1.91c-0.352,0.33-0.762,0.58-1.186,0.799
	c-1.241,0.644-2.504,1.242-3.826,1.699c-0.203,0.07-0.416,0.115-0.622,0.18c-0.085,0.025-0.163,0.058-0.049,0.166
	c0.916,0.865,1.517,1.949,2.052,3.064c0.652,1.359,1.209,2.76,1.56,4.23c0.13,0.549,0.229,1.107,0.233,1.697
	c0.339-0.084,0.664-0.176,1.012-0.198c0.581-0.038,1.027,0.411,1.155,0.911c0.175,0.681,0.113,1.365,0.022,2.056
	c-0.094,0.713-0.257,1.401-0.603,2.032c-0.632,1.156-1.575,1.883-2.917,2.027c-0.112,0.014-0.216,0.071-0.335,0.057
	c-0.09-0.012-0.078,0.063-0.096,0.122c-0.103,0.341-0.063,0.696-0.094,1.043c-0.1,1.188-0.095,2.384-0.054,3.575
	c0.028,0.832,0.155,1.66,0.521,2.428c0.074,0.158,0.16,0.311,0.294,0.429c0.103,0.091,0.091,0.166,0.002,0.267
	c-0.812,0.91-1.849,1.406-3.02,1.644c-0.686,0.138-1.382,0.183-2.08,0.229c-0.459,0.031-0.92-0.014-1.372,0.047
	c-0.854,0.113-1.704-0.07-2.558-0.012c-0.172,0.012-0.347-0.029-0.521-0.049c-0.112-0.012-0.151,0.031-0.155,0.148
	c-0.042,1.191,0.153,2.341,0.581,3.455c0.336,0.875,0.883,1.632,1.352,2.431c0.452,0.771,0.891,1.551,1.307,2.342
	c0.202,0.384,0.403,0.769,0.592,1.161c0.105,0.223,0.321,0.155,0.477,0.176c0.381,0.049,0.755,0.098,1.104,0.274
	c0.069,0.036,0.091,0.04,0.13-0.062c0.354-0.908,0.903-1.692,1.542-2.43c0.499-0.576,1.063-1.059,1.735-1.404
	c0.522-0.268,1.093-0.375,1.669-0.463c1.248-0.188,2.503-0.102,3.753-0.088c0.701,0.008,1.408,0.098,2.11,0.188
	c0.77,0.097,1.536,0.197,2.295,0.341c0.852,0.161,1.693,0.362,2.528,0.588c1.297,0.351,2.559,0.812,3.755,1.427
	c0.938,0.481,1.827,1.038,2.604,1.77c1.007,0.951,1.94,1.965,2.691,3.132c0.275,0.428,0.522,0.877,0.553,1.414
	c0.028,0.522-0.201,0.924-0.525,1.292c-0.812,0.922-1.774,1.642-2.896,2.145c-0.736,0.331-1.508,0.551-2.313,0.664
	c-0.55,0.077-1.101,0.125-1.652,0.098c-1.359-0.068-2.699-0.25-3.953-0.832c-0.979-0.455-1.756-1.146-2.374-2.022
	c-0.361-0.517-0.787-0.979-1.203-1.45c-0.613-0.695-1.29-1.33-1.934-1.999c-0.152-0.157-0.245-0.14-0.396-0.022
	c-1.331,1.019-2.698,1.986-4.065,2.955c-1.084,0.769-2.168,1.537-3.216,2.355c-0.181,0.143-0.163,0.344-0.171,0.499
	c-0.019,0.394-0.107,0.769-0.202,1.146c1.444,0.103,2.845,0.379,4.226,0.781c1.582,0.459,3.088,1.096,4.532,1.879
	c1.101,0.594,2.129,1.301,3.146,2.028c0.822,0.589,1.616,1.209,2.374,1.886c0.927,0.825,1.66,1.789,2.188,2.9
	c0.563,1.188,1.146,2.372,1.531,3.636c0.177,0.58,0.31,1.169,0.252,1.776c-0.088,0.93-0.539,1.585-1.514,1.968
	c-0.619,0.243-1.268,0.347-1.935,0.386c-0.351,0.021-0.702,0.055-1.053,0.038c-1.114-0.052-2.219-0.181-3.295-0.493
	c-1.125-0.328-2.181-0.804-3.143-1.471c-0.872-0.605-1.644-1.316-2.209-2.229c-0.227-0.365-0.251-0.789-0.342-1.19
	c-0.154-0.68-0.414-1.321-0.703-1.95c-0.277-0.605-0.523-1.23-0.951-1.758c-0.192-0.238-0.392-0.472-0.61-0.689
	c-0.091-0.088-0.158-0.078-0.241-0.013c-0.815,0.65-1.765,1.011-2.783,1.118c-0.624,0.064-1.266,0.047-1.901-0.021
	c-0.567-0.063-1.115-0.179-1.629-0.418c-0.188-0.088-0.252-0.114-0.369,0.093c-0.415,0.735-0.948,1.384-1.572,1.952
	c-0.646,0.588-1.342,1.104-2.107,1.529c-0.966,0.533-1.936,1.06-2.929,1.541c-0.297,0.143-0.596,0.285-0.906,0.389
	c-0.229,0.078-0.218,0.271-0.239,0.42c-0.326,2.236-1.165,4.287-2.206,6.273c-0.505,0.965-0.793,2.01-0.993,3.078
	c-0.14,0.737-0.219,1.48-0.275,2.229c-0.091,1.188-0.134,2.379-0.084,3.566c0.03,0.719,0.008,1.442,0.094,2.159
	c0.134,1.104,0.324,2.195,0.61,3.271c0.419,1.578,0.98,3.101,1.672,4.578c0.453,0.969,0.951,1.912,1.521,2.815
	c0.099,0.156,0.171,0.28-0.062,0.433c-0.652,0.435-1.365,0.707-2.121,0.887c-1.211,0.289-2.44,0.17-3.659,0.141
	c-1.013-0.023-2.031-0.152-3.021-0.408c-0.464-0.119-0.903-0.037-1.352,0.057c-0.512,0.106-1.028,0.168-1.55,0.219
	c-1.067,0.104-2.139,0.18-3.21,0.146c-0.878-0.029-1.755-0.133-2.557-0.533c-0.411-0.207-0.727-0.51-0.945-0.938
	c-0.676-1.309-1.168-2.684-1.511-4.111c-0.157-0.658-0.251-1.328-0.353-1.998c-0.195-1.289-0.176-2.584-0.139-3.875
	c0.023-0.811,0.098-1.623,0.187-2.432c0.061-0.555,0.124-1.109,0.179-1.667c0.058-0.579,0.16-1.153,0.243-1.729
	c0.076-0.524,0.147-1.049,0.23-1.572c0.106-0.668,0.214-1.337,0.336-2.002c0.146-0.792,0.314-1.58,0.452-2.374
	c0.025-0.144,0.098-0.193,0.199-0.242c0.567-0.272,1.171-0.373,1.795-0.382c0.023,0,0.047-0.012,0.092-0.023
	c-0.488-0.861-0.928-1.736-1.35-2.621c-0.585-1.227-1.119-2.477-1.583-3.756c-0.367-1.011-0.683-2.035-0.88-3.091
	c-0.12-0.642-0.184-1.293-0.24-1.944c-0.06-0.689-0.049-1.377-0.033-2.063c0.012-0.494,0.031-0.994,0.144-1.483
	c0.028-0.128,0.02-0.242-0.137-0.32c-1.428-0.723-2.925-1.265-4.479-1.633c-0.675-0.16-1.37-0.231-2.066-0.293
	c-1.026-0.09-2.018,0.028-2.99,0.334c-0.836,0.264-1.563,0.721-2.166,1.354c-0.551,0.579-0.956,1.256-1.257,1.995
	c-0.313,0.771-0.57,1.557-0.722,2.379c-0.173,0.939-0.183,1.878-0.105,2.827c0.103,1.267,0.462,2.469,0.882,3.653
	c0.403,1.142,0.868,2.262,1.264,3.405c0.283,0.819,0.476,1.662,0.526,2.54c0.106,1.809-0.104,3.566-0.773,5.252
	c-0.298,0.752-0.724,1.438-1.274,2.047c-0.894,0.983-1.97,1.637-3.271,1.908c-0.182,0.038-0.104,0.115-0.061,0.2
	c0.196,0.381,0.31,0.794,0.366,1.212c0.13,0.945-0.068,1.829-0.603,2.627c-0.714,1.068-1.256,2.213-1.515,3.479
	c-0.022,0.109-0.084,0.17-0.184,0.123c-0.55-0.271-1.089-0.561-1.278-1.211c-0.021-0.066-0.024-0.139-0.024-0.209
	c0-0.074-0.036-0.125-0.102-0.203c-0.096,0.314-0.18,0.612-0.277,0.906c-0.505,1.51-1.443,2.571-3.043,2.965
	c-0.649,0.16-1.298,0.303-1.964,0.379c-0.437,0.051-0.878,0.086-1.31,0.082c-1.068-0.01-2.139-0.086-3.167-0.383
	c1.483-1.088,2.456-2.548,3.094-4.255c-0.679,0.431-1.35,0.841-2.063,1.183c-0.786,0.375-1.544,0.396-2.305-0.073
	c-0.186-0.114-0.122-0.173-0.016-0.265c0.886-0.748,1.286-1.732,1.43-2.856c0.093-0.731,0.007-1.465,0.052-2.195
	c0.043-0.698,0.248-1.319,0.855-1.762c0.366-0.267,0.773-0.422,1.182-0.588c0.589-0.24,1.188-0.435,1.848-0.388
	c-0.534-0.412-1.044-0.83-1.525-1.28c-0.527-0.494-1.044-1.001-1.525-1.544c-0.389-0.438-0.771-0.883-1.119-1.352
	c-0.914-1.231-1.683-2.541-2.225-3.984c-0.341-0.904-0.57-1.834-0.723-2.782c-0.048-0.298-0.095-0.608-0.069-0.918
	c0.006-0.078,0.05-0.179-0.05-0.241C20,74.667,20,74.348,20,74.028z"/>
<g enable-background="new    ">
	<path fill="#454545" d="M136.396,85.127c0,1.856-0.666,3.449-1.99,4.777c-1.328,1.324-2.92,1.99-4.777,1.99h-6.767V42.334
		c0-9.287,2.718-15.625,8.161-19.008c5.439-3.383,11.345-5.075,17.714-5.075c3.316,0,6.668,0.631,10.053,1.891
		c3.383,1.263,6.07,3.085,8.061,5.474c3.98,5.175,5.971,11.812,5.971,19.904c0,8.359-1.99,15.127-5.971,20.302
		c-3.98,5.045-9.092,7.563-15.326,7.563c-3.318,0-6.238-0.597-8.758-1.791c-2.656-1.325-4.777-3.384-6.369-6.171V85.127z
		 M159.086,46.116c0-5.175-0.994-9.155-2.984-11.942s-4.846-4.18-8.559-4.18c-3.584,0-6.369,1.393-8.359,4.18
		c-1.86,2.522-2.787,6.503-2.787,11.942c0,5.045,0.995,8.826,2.985,11.346c1.991,2.786,4.843,4.18,8.56,4.18
		c3.447,0,6.17-1.394,8.16-4.18C158.092,54.674,159.086,50.893,159.086,46.116z"/>
</g>
<g>
	<path fill="#454545" d="M201.88,72.388h-14.132l-18.511-52.944h14.729l10.55,37.221l9.354-32.443
		c1.061-3.185,3.185-4.777,6.369-4.777h10.35L201.88,72.388z"/>
</g>
<g enable-background="new    ">
	<path fill="#3A7DC0" d="M224.366,4.044h7.166c1.856,0,3.449,0.631,4.776,1.891c1.325,1.263,1.99,2.821,1.99,4.677v61.901h-13.933
		V4.044z"/>
</g>
<g>
	<path fill="#3A7DC0" d="M245.652,52.959l-2.389-41.997c0-1.99,0.696-3.682,2.09-5.076c1.394-1.393,3.085-2.09,5.075-2.09h6.967
		l-2.389,49.163H245.652z M248.638,58.533h8.559v13.733h-13.733v-8.559C243.463,60.258,245.186,58.533,248.638,58.533z"/>
</g>
<polyline fill="none" points="234.75,76.39 234.75,103.818 145.168,103.818 145.168,76.39 "/>
<g enable-background="new    ">
	<path fill="#454545" d="M148.182,94.521c0,0.413-0.148,0.768-0.443,1.063c-0.296,0.295-0.65,0.443-1.063,0.443h-1.507V84.992
		c0-2.067,0.605-3.479,1.817-4.232c1.211-0.753,2.526-1.13,3.944-1.13c0.738,0,1.484,0.141,2.238,0.421
		c0.753,0.281,1.352,0.687,1.795,1.219c0.886,1.152,1.329,2.63,1.329,4.432c0,1.861-0.443,3.368-1.329,4.521
		c-0.887,1.124-2.024,1.685-3.413,1.685c-0.738,0-1.389-0.133-1.95-0.399c-0.591-0.295-1.063-0.753-1.418-1.373V94.521z
		 M153.234,85.833c0-1.152-0.222-2.038-0.665-2.659c-0.443-0.62-1.079-0.931-1.905-0.931c-0.798,0-1.419,0.311-1.862,0.931
		c-0.414,0.563-0.62,1.448-0.62,2.659c0,1.124,0.222,1.966,0.665,2.526c0.443,0.621,1.078,0.931,1.905,0.931
		c0.769,0,1.374-0.31,1.817-0.931C153.013,87.74,153.234,86.898,153.234,85.833z"/>
	<path fill="#454545" d="M158.277,90.621c-0.621-0.532-1.064-1.248-1.33-2.149s-0.398-1.84-0.398-2.814
		c0-0.798,0.11-1.596,0.332-2.394s0.568-1.462,1.042-1.994c0.768-0.887,1.757-1.41,2.969-1.573c1.211-0.162,2.305-0.066,3.28,0.288
		c1.122,0.443,1.949,1.212,2.481,2.305c0.502,0.975,0.754,2.112,0.754,3.412c0,0.946-0.104,1.759-0.311,2.438
		c-0.207,0.681-0.473,1.257-0.798,1.729c-0.709,0.976-1.61,1.581-2.703,1.817c-0.976,0.266-1.958,0.288-2.947,0.066
		C159.658,91.529,158.868,91.152,158.277,90.621z M160.404,82.82c-0.62,0.681-0.901,1.692-0.842,3.036
		c0.059,1.345,0.31,2.282,0.753,2.814c0.178,0.236,0.487,0.437,0.931,0.599s0.894,0.177,1.352,0.044s0.864-0.466,1.22-0.997
		c0.354-0.532,0.546-1.389,0.576-2.57c0-1.064-0.171-1.861-0.51-2.394c-0.341-0.532-0.731-0.871-1.175-1.02
		c-0.443-0.147-0.887-0.155-1.33-0.022C160.937,82.444,160.61,82.614,160.404,82.82z"/>
	<path fill="#454545" d="M178.229,91.684h-1.552c-0.442,0-0.805-0.14-1.085-0.421c-0.281-0.28-0.422-0.643-0.422-1.086V84.15
		c0-0.709-0.214-1.226-0.643-1.552c-0.429-0.324-0.908-0.487-1.44-0.487c-0.531,0-1.004,0.163-1.418,0.487
		c-0.414,0.326-0.62,0.843-0.62,1.552v7.534h-3.103V84.77c0-2.009,0.524-3.353,1.573-4.033c1.049-0.679,2.208-1.048,3.479-1.107
		c1.3,0,2.496,0.34,3.59,1.02c1.093,0.68,1.64,2.054,1.64,4.121V91.684z"/>
	<path fill="#454545" d="M179.725,95.85v-2.438h0.842c0.591,0,1.056-0.141,1.396-0.421c0.34-0.281,0.406-0.731,0.2-1.352
		l-4.122-11.745h3.412l2.394,8.332l2.083-7.269c0.178-0.709,0.649-1.063,1.418-1.063h2.128l-4.521,13.429
		c-0.354,0.976-0.798,1.669-1.33,2.083c-0.531,0.354-1.403,0.532-2.614,0.532c-0.089,0-0.192,0-0.311,0s-0.222,0-0.311,0
		c-0.088-0.03-0.199-0.052-0.332-0.066C179.924,95.857,179.813,95.85,179.725,95.85z"/>
	<path fill="#454545" d="M197.068,91.684h-3.146L189.8,79.895h3.279l2.35,8.288l2.083-7.225c0.235-0.709,0.709-1.063,1.418-1.063
		h2.305L197.068,91.684z"/>
	<path fill="#454545" d="M201.698,76.438h1.596c0.413,0,0.768,0.148,1.063,0.443c0.295,0.296,0.443,0.65,0.443,1.063v0.931h-3.103
		V76.438z M201.698,79.895h1.596c0.413,0,0.768,0.148,1.063,0.443c0.295,0.296,0.443,0.65,0.443,1.063v10.282h-3.103V79.895z"/>
	<path fill="#454545" d="M205.616,76.438h1.596c0.413,0,0.768,0.141,1.063,0.421c0.295,0.281,0.443,0.629,0.443,1.042v13.783h-3.103
		V76.438z"/>
	<path fill="#454545" d="M209.732,76.438h1.596c0.413,0,0.768,0.141,1.063,0.421c0.295,0.281,0.443,0.629,0.443,1.042v13.783h-3.103
		V76.438z"/>
	<path fill="#454545" d="M221.852,88.05h2.216c-0.325,1.24-0.946,2.187-1.861,2.836c-0.916,0.68-2.068,1.02-3.457,1.02
		c-1.685,0-2.999-0.547-3.944-1.64c-0.946-1.063-1.418-2.585-1.418-4.565c0-1.891,0.457-3.368,1.374-4.432
		c0.945-1.093,2.26-1.64,3.944-1.64c1.772,0,3.146,0.531,4.121,1.596c0.945,1.093,1.419,2.614,1.419,4.564c0,0.118,0,0.222,0,0.311
		c0,0.088,0,0.147,0,0.177c0,0.148-0.016,0.252-0.045,0.311h-7.667c0.029,0.916,0.251,1.596,0.665,2.039
		c0.383,0.473,0.959,0.709,1.729,0.709c0.502,0,0.931-0.104,1.285-0.311c0.088-0.029,0.169-0.081,0.243-0.155
		c0.073-0.073,0.155-0.155,0.244-0.243c0.029-0.089,0.14-0.207,0.332-0.354C221.224,88.124,221.497,88.05,221.852,88.05z
		 M216.533,84.593h4.521c-0.06-0.798-0.266-1.389-0.62-1.773c-0.385-0.413-0.931-0.62-1.641-0.62c-0.649,0-1.182,0.207-1.595,0.62
		C216.784,83.234,216.563,83.825,216.533,84.593z"/>
</g>
<polyline fill="none" points="314.861,103.818 225.279,103.818 225.279,76.39 "/>
<g enable-background="new    ">
	<path fill="#3A7DC0" d="M225.411,76.438h1.596c0.413,0,0.768,0.141,1.063,0.421c0.295,0.281,0.443,0.629,0.443,1.042v13.783h-3.103
		V76.438z"/>
	<path fill="#3A7DC0" d="M229.59,76.438h1.596c0.413,0,0.768,0.148,1.063,0.443c0.295,0.296,0.443,0.65,0.443,1.063v0.931h-3.103
		V76.438z M229.59,79.895h1.596c0.413,0,0.768,0.148,1.063,0.443c0.295,0.296,0.443,0.65,0.443,1.063v10.282h-3.103V79.895z"/>
	<path fill="#3A7DC0" d="M239.958,91.684h-3.146l-4.122-11.789h3.279l2.35,8.288l2.083-7.225c0.235-0.709,0.709-1.063,1.418-1.063
		h2.305L239.958,91.684z"/>
	<path fill="#3A7DC0" d="M252.117,88.05h2.216c-0.325,1.24-0.946,2.187-1.861,2.836c-0.916,0.68-2.068,1.02-3.457,1.02
		c-1.685,0-2.999-0.547-3.944-1.64c-0.946-1.063-1.418-2.585-1.418-4.565c0-1.891,0.457-3.368,1.374-4.432
		c0.945-1.093,2.26-1.64,3.944-1.64c1.772,0,3.146,0.531,4.121,1.596c0.945,1.093,1.419,2.614,1.419,4.564c0,0.118,0,0.222,0,0.311
		c0,0.088,0,0.147,0,0.177c0,0.148-0.016,0.252-0.045,0.311h-7.667c0.029,0.916,0.251,1.596,0.665,2.039
		c0.383,0.473,0.959,0.709,1.729,0.709c0.502,0,0.931-0.104,1.285-0.311c0.088-0.029,0.169-0.081,0.243-0.155
		c0.073-0.073,0.155-0.155,0.244-0.243c0.029-0.089,0.14-0.207,0.332-0.354C251.489,88.124,251.763,88.05,252.117,88.05z
		 M246.799,84.593h4.521c-0.06-0.798-0.266-1.389-0.62-1.773c-0.385-0.413-0.931-0.62-1.641-0.62c-0.649,0-1.182,0.207-1.595,0.62
		C247.05,83.234,246.828,83.825,246.799,84.593z"/>
	<path fill="#3A7DC0" d="M255.556,87.385l-0.532-9.352c0-0.443,0.155-0.82,0.466-1.13c0.31-0.311,0.687-0.466,1.13-0.466h1.551
		l-0.531,10.947H255.556z M256.22,88.626h1.906v3.058h-3.059v-1.905C255.067,89.01,255.451,88.626,256.22,88.626z"/>
</g>
</svg>
