<svg width="74" height="16" viewBox="0 0 74 16" fill="none" xmlns="http://www.w3.org/2000/svg">
<path fill-rule="evenodd" clip-rule="evenodd" d="M11.3615 12.2478V7.24156H7.10123L7.40036 9.13249H9.1653V10.9632C8.75353 11.1897 8.3547 11.2932 7.7953 11.2932C6.04071 11.2932 5.15888 9.93522 5.15888 8.00108C5.15888 6.06693 6.01093 4.76659 7.76681 4.76659C8.81439 4.76659 9.71175 5.15421 10.477 5.64527L10.8163 3.42565C10.0057 2.96209 8.95941 2.66614 7.70725 2.66614C4.56841 2.66614 2.63901 4.82421 2.63901 8.01417C2.63901 11.2041 4.42209 13.3347 7.64898 13.3347C9.04876 13.3347 10.3022 12.9484 11.3627 12.2465L11.3615 12.2478Z" fill="#007CFF"/>
<path fill-rule="evenodd" clip-rule="evenodd" d="M19.6462 10.0413C19.6462 8.4031 18.7644 7.62787 16.554 6.80812C15.285 6.31836 15.004 6.06432 15.004 5.5392C15.004 5.06254 15.3731 4.7404 16.1409 4.7404C16.9088 4.7404 17.8787 5.03504 18.7903 5.57063L19.1736 3.42697C18.2879 2.99483 17.4345 2.74078 16.1086 2.74078C14.1649 2.74078 12.6331 3.79625 12.6331 5.78015C12.6331 7.47859 13.5162 8.15037 15.5492 8.93869C16.9787 9.4913 17.2727 9.76106 17.2727 10.3412C17.2727 10.9514 16.7716 11.2644 16.049 11.2644C15.0338 11.2644 13.871 10.8768 12.8234 10.3124L12.4557 12.4862C13.4877 12.9628 14.6363 13.2588 16.005 13.2588C18.025 13.2588 19.6449 12.2779 19.6449 10.0413H19.6462Z" fill="#007CFF"/>
<path d="M32.8801 7.94349C32.3414 7.94349 31.9037 7.50088 31.9037 6.95612C31.9037 6.41136 32.3414 5.96875 32.8801 5.96875C33.4188 5.96875 33.8565 6.41136 33.8565 6.95612C33.8565 7.50088 33.4188 7.94349 32.8801 7.94349Z" fill="white"/>
<path d="M24.7857 9.55813C25.9589 8.77766 27.5516 7.7641 27.5516 5.83126C27.5516 3.70986 25.775 2.74475 24.124 2.74475C21.6611 2.74475 20.6679 4.72473 20.528 5.03377L22.429 5.93341C22.5481 5.71865 23.0764 4.86354 23.9595 4.86354C24.5306 4.86354 25.0887 5.33758 25.0887 6.07483C25.0887 6.66804 24.427 7.1172 23.6034 7.68422C22.2982 8.58385 20.6731 9.70348 20.6731 12.0043C20.6731 12.3055 20.7067 12.642 20.7793 13.0571H27.5555V10.996H23.3755C23.3755 10.5442 24.023 10.0649 24.787 9.55682L24.7857 9.55813Z" fill="#00D4EA"/>
<path d="M33.4758 5.87838C33.345 5.83516 33.1145 5.771 32.8814 5.771C32.2339 5.771 31.7095 6.30135 31.7095 6.9561C31.7095 7.40133 31.9426 7.78109 32.3116 7.99061C32.4735 8.08359 32.8866 8.20799 33.0018 8.27085C33.4939 8.53799 33.8293 9.0631 33.8293 9.66679C33.8293 10.5415 33.1287 11.25 32.2637 11.25C31.4441 11.25 30.7707 10.6123 30.7047 9.80036L28.6069 10.2613C28.9488 12.0121 30.4755 13.3334 32.3078 13.3334C34.3913 13.3334 36.0798 11.6258 36.0798 9.51881C36.0798 7.82431 34.9882 6.37337 33.4758 5.87576V5.87838ZM32.8814 7.74574C32.4515 7.74574 32.1019 7.39217 32.1019 6.95741C32.1019 6.52265 32.4515 6.16909 32.8814 6.16909C33.3113 6.16909 33.6609 6.52265 33.6609 6.95741C33.6609 7.39217 33.3113 7.74574 32.8814 7.74574Z" fill="#00D4EA"/>
<path d="M31.2265 4.94338H33.6493C35.0827 4.94338 35.6033 3.76875 35.6033 2.88745H29.2596L28.8465 7.65014H30.9559L31.2252 4.94469L31.2265 4.94338Z" fill="#00D4EA"/>
<path d="M41.6828 4.96173C42.6566 4.96173 43.282 5.08352 43.7987 5.43577C44.6766 6.0316 44.7492 6.99278 44.7492 7.34504C44.7492 8.51181 44.0396 9.36299 42.97 9.60656L45.4704 13.0715H43.9916L41.6958 9.75192H41.4795V13.0715H40.2533V4.96173H41.6841H41.6828ZM41.4782 8.68205H41.8628C42.1995 8.68205 43.5708 8.64538 43.5708 7.35682C43.5708 6.21362 42.5012 6.10493 41.8991 6.10493H41.4782V8.68336V8.68205Z" fill="#5E514D"/>
<path d="M51.3855 11.1138H47.9592L47.0813 13.0715H45.7592L49.7513 4.48639L53.5506 13.0715H52.2285L51.3868 11.1138H51.3855ZM50.8922 9.94704L49.7021 7.19838L48.4642 9.94704H50.8934H50.8922Z" fill="#5E514D"/>
<path d="M56.2427 4.96173C57.3615 4.96173 58.3352 5.08352 59.2248 5.75267C60.1986 6.49386 60.7645 7.67372 60.7645 9.02383C60.7645 10.3739 60.2116 11.5407 59.1536 12.295C58.2161 12.9641 57.3382 13.0728 56.2194 13.0728H54.5606V4.96304H56.244L56.2427 4.96173ZM55.7856 11.9047H56.3152C56.916 11.9047 57.7461 11.8563 58.444 11.3338C58.9969 10.9082 59.5382 10.1304 59.5382 9.02383C59.5382 7.91729 59.0332 7.11456 58.4557 6.68897C57.7577 6.17827 56.9044 6.12981 56.3152 6.12981H55.7856V11.9061V11.9047Z" fill="#5E514D"/>
<path d="M63.5291 4.96173V13.0715H62.3028V4.96173H63.5291Z" fill="#5E514D"/>
<path d="M73.4118 9.02252C73.4118 11.4058 71.6442 13.23 69.2396 13.23C66.835 13.23 65.0674 11.4058 65.0674 9.02252C65.0674 6.63921 66.835 4.81506 69.2396 4.81506C71.6442 4.81506 73.4118 6.63921 73.4118 9.02252ZM72.1855 9.02252C72.1855 7.22325 70.9592 5.95826 69.2396 5.95826C67.52 5.95826 66.2937 7.22325 66.2937 9.02252C66.2937 10.8218 67.52 12.0868 69.2396 12.0868C70.9592 12.0868 72.1855 10.8218 72.1855 9.02252Z" fill="#5E514D"/>
</svg>
