<?xml version="1.0" standalone="no"?>
<!DOCTYPE svg PUBLIC "-//W3C//DTD SVG 20010904//EN"
 "http://www.w3.org/TR/2001/REC-SVG-20010904/DTD/svg10.dtd">
<svg version="1.0" xmlns="http://www.w3.org/2000/svg"
 width="300.000000pt" height="300.000000pt" viewBox="0 0 300.000000 300.000000"
 preserveAspectRatio="xMidYMid meet">
<metadata>
Created by potrace 1.11, written by Peter Selinger 2001-2013
</metadata>
<g transform="translate(0.000000,300.000000) scale(0.100000,-0.100000)"
fill="#000000" stroke="none">
<path d="M898 2548 l-608 -351 0 -702 0 -702 127 -75 c71 -42 328 -190 573
-330 245 -141 461 -265 481 -277 l36 -21 604 349 604 349 0 707 0 707 -155 91
c-245 143 -1051 607 -1053 607 -1 0 -275 -159 -609 -352z m885 47 c16 -11 3
-17 -100 -41 -271 -63 -596 -154 -630 -176 -19 -13 -43 -40 -54 -60 -18 -36
-19 -64 -19 -693 0 -360 -2 -655 -5 -655 -2 0 -30 7 -62 15 -152 40 -341 1
-442 -90 -23 -21 -43 -36 -45 -34 -2 2 -6 288 -10 634 l-7 630 548 316 547
316 131 -75 c71 -41 138 -81 148 -87z m718 -416 l89 -51 0 -631 -1 -632 -486
-280 c-267 -154 -512 -294 -543 -312 l-56 -32 -201 116 -202 116 24 31 c13 17
33 52 44 76 20 44 21 64 21 670 l0 625 483 123 c265 67 488 122 495 122 9 0
12 -91 12 -420 0 -231 -1 -420 -2 -420 -2 0 -25 7 -52 15 -62 19 -204 19 -273
1 -122 -33 -215 -102 -257 -191 -101 -213 95 -435 384 -435 176 0 321 78 392
212 l23 43 3 653 c2 358 5 652 9 652 3 0 46 -23 94 -51z"/>
</g>
</svg>
